<?xml version="1.0" encoding="UTF-8" standalone="no"?>
<!-- Created with Inkscape (http://www.inkscape.org/) -->
<svg id="svg2" xmlns:rdf="http://www.w3.org/1999/02/22-rdf-syntax-ns#" xmlns="http://www.w3.org/2000/svg" height="744.09" width="1052.4" version="1.1" xmlns:cc="http://creativecommons.org/ns#" xmlns:xlink="http://www.w3.org/1999/xlink" xmlns:dc="http://purl.org/dc/elements/1.1/">
 <defs id="defs4">
  <linearGradient id="linearGradient3763" y2="98.895" gradientUnits="userSpaceOnUse" x2="539.18" y1="662.56" x1="539.18">
   <stop id="stop3757" stop-color="#73b7d9" offset="0"/>
   <stop id="stop3759" stop-color="#1f4faa" offset="1"/>
  </linearGradient>
  <linearGradient id="linearGradient4496" y2="575.93" gradientUnits="userSpaceOnUse" x2="485.75" gradientTransform="translate(0,7.3242187e-4)" y1="744.09" x1="485.75">
   <stop id="stop4457" stop-color="#002800" offset="0"/>
   <stop id="stop4459" stop-color="#1aab30" offset="1"/>
  </linearGradient>
 </defs>
 <metadata id="metadata7">
  <rdf:RDF>
   <cc:Work rdf:about="">
    <dc:format>image/svg+xml</dc:format>
    <dc:type rdf:resource="http://purl.org/dc/dcmitype/StillImage"/>
    <dc:title/>
   </cc:Work>
  </rdf:RDF>
 </metadata>
 <g id="layer1">
  <rect id="sky" height="744.09" width="1052.4" y="0" x="0" fill="url(#linearGradient3763)"/>
  <path id="sun" fill="#f9ff00" d="m178.74,12.191,0,71.344,27.531,0,0-71.344-27.531,0zm-64.219,17.219-23.844,13.75,35.656,61.781,23.844-13.75-35.656-61.781zm156,0-35.688,61.781,23.844,13.75,35.688-61.781-23.844-13.75zm-226.88,60.781-13.75,23.844,61.781,35.656,13.75-23.812-61.781-35.688zm297.75,0-61.812,35.688,13.781,23.812,61.781-35.656-13.75-23.844zm-148.88,19.469c-45.314,0.00001-82.062,36.748-82.062,82.062s36.748,82.031,82.062,82.031,82.031-36.717,82.031-82.031-36.717-82.062-82.031-82.062zm-179.84,68.625,0,27.5,71.344,0,0-27.5-71.344,0zm288.34,0,0,27.5,71.344,0,0-27.5-71.344,0zm-209.34,56.094-61.781,35.656,13.75,23.844,61.781-35.688-13.75-23.812zm201.69,0-13.781,23.812,61.812,35.688,13.75-23.844-61.781-35.656zm-167.03,44.719-35.656,61.812,23.844,13.75,35.656-61.781-23.844-13.781zm132.34,0-23.844,13.781,35.688,61.781,23.844-13.75-35.688-61.812zm-79.938,21.438,0,71.344,27.531,0,0-71.344-27.531,0z"/>
  <path id="rain1" d="m1411.5-44.415-21.156,38.031,6.6874,3.75,21.188-38.031-6.7188-3.75zm-58.062,1.3125-20.844,38.219,6.7187,3.6562,20.844-38.188-6.7187-3.6875zm-1055.2,1.7812-20.812,38.219,6.75,3.6563,20.812-38.219-6.75-3.6562zm1204.5,1.125-14.719,26.594-3.5-2.125-22.469,37.281,6.5937,3.9688,15.719-26.125,4,2.2187,21.094-38.094-6.7188-3.7188zm-601.25,0.875-21.938,37.594,6.6562,3.875,21.906-37.594-6.625-3.875zm562.56,0.15625-21.688,37.75,6.6562,3.8125,21.688-37.75-6.6563-3.8125zm-1256.9,0.40625-21.719,37.719,6.6562,3.8125,21.719-37.719-6.6562-3.8125zm-48.344,0.9375-21.688,37.719,6.6562,3.8125,21.719-37.719-6.6875-3.8125zm548.38,0.125-21.062,38.063,6.7188,3.7187,21.062-38.063-6.7188-3.7188zm306.25,0.96875-21.188,38.031,6.7188,3.7188,21.188-38-6.7188-3.75zm-334.22,0.53125-18.344,29.938-2.5-1.4375-21.719,37.75,6.6562,3.8125,17.469-30.312,2.2187,1.375,22.781-37.125-6.5625-4zm138.38,0.59375-22.688,37.156,6.5312,4,22.719-37.125-6.5625-4.0312zm742.78,0.28125-22.438,37.313,4.8438,2.875-11.688,21.375,6.75,3.6875,20.844-38.187-4.2187-2.3125,12.5-20.781-6.5938-3.9688zm-1169.1,0.9375-22.594,37.219,6.5625,3.9688,22.594-37.219-6.5625-3.9688zm-135.12,0.875-17.625,32.375-3.0312-1.75-21.812,37.687,6.6562,3.8438,18.531-32,3.2188,1.75,20.812-38.219-6.75-3.6875zm829.91,0.03125-21.188,38.031,6.7188,3.7188,21.187-38-6.7187-3.75zm197.94,0.21875-22.562,37.219,0.875,0.53125-12.219,20.812,3.5624,2.0938-21.594,35.344,6.5313,4.0312,22.719-37.156-3.5625-2.1562,21.031-35.781-0.6875-0.40625,12.469-20.563-6.5624-3.9688zm-423.56,0.625-10.312,18.844-2.9375-1.6562-21.25,38,5.5937,3.125-14.188,26.031,6.75,3.6875,20.812-38.219-5.4687-3,3.7187-6.625,3.0938,1.6875,20.938-38.188-6.75-3.6875zm-667.59,1.0938-20.625,38.313,6.7812,3.6562,20.625-38.344-6.7812-3.625zm1024.3,1.2188-22.813,37.094,6.25,3.8437-17.031,30.719,6.7188,3.7188,21.094-38.062-6.0625-3.3438,18.406-29.938-6.5624-4.0312zm152.81,2.5312-21.687,37.719,6.6562,3.8125,21.688-37.719-6.6563-3.8125zm-206.69,0.71875-12.594,22.438-2.8438-1.5938-21.375,37.906,3.1563,1.7812-2.5937,4.5625-4.0313-2.5-22.844,37.063,6.5312,4.0312,4.0938-6.6562-4.1876,7.375,6.6876,3.8125,21.531-37.844-1.4688-0.84375,13.781-24.219-3.2187-1.8438,1.875-3.375,2.9062,1.625,21.312-37.969-6.7187-3.75zm-105.44,0.90625-22.375,37.312,6.5938,3.9688,22.375-37.344-6.5938-3.9375zm-319.72,1.0625-21.438,37.875,6.6875,3.7812,21.438-37.875-6.6875-3.7812zm-728.63,1.5625-8.5625,14.875-2.1875-1.2188-21.094,38.062,6.7188,3.7188,8.25-14.906,1.75,1,21.781-37.688-6.6562-3.8438zm345.19,1.4688-22.562,37.219,6.5625,3.9688,22.562-37.219-6.5625-3.9688zm-238.5,0.1875-3.7812,6.5625-5.8438-3.3438-10.406,18.188-1.8125-1.0313-21.562,37.812,6.6562,3.8125,10.406-18.219,1.7812,1.0312,3.75-6.5625,5.6875,3.2812,21.781-37.688-6.6562-3.8438zm1487.7,1.0625-17.031,30.094-0.031-0.03125-22.438,37.312,6.5939,3.9375,17.906-29.781,0.25,0.125,21.438-37.875-6.6877-3.7812zm-563.97,0.25-22.188,37.438,6.5937,3.9375,22.188-37.469-6.5937-3.9062zm-268.72,1.3438-21.344,37.938,6.6875,3.7812,21.344-37.938-6.6875-3.7812zm-328.88,0.90625-22.438,37.281,0.78125,0.46875-21.75,37.063,6.625,3.875,10.438-17.781,4.5312,2.4688,20.75-38.25-3.8438-2.0625,11.5-19.094-6.5938-3.9688zm-23.5,2.9062-21.906,37.625,6.625,3.8438,21.906-37.594-6.625-3.875zm530.94,1.2188-21.281,37.969,6.6875,3.75,21.281-37.969-6.6875-3.75zm-476.19,0.375-22.562,37.219,6.5625,3.9688,22.594-37.219-6.5937-3.9688zm-399.91,0.21875-21.656,37.75,6.6875,3.8438,21.625-37.781-6.6562-3.8125zm245.37,0.53125-20.688,38.312,6.7812,3.625,20.656-38.281-6.75-3.6563zm180.12,0.6875-22.875,37.031,6.5312,4.0312,22.875-37-6.5313-4.0625zm17.875,0-20.656,38.312,6.75,3.6562,20.656-38.344-6.75-3.625zm402.81,2.625-20.875,38.219,6.75,3.6875,20.875-38.219-6.75-3.6875zm205.38,0.53125-22.844,37.062,6.5625,4.0312,22.812-37.062-6.5312-4.0312zm101.5,0.28125-22.312,37.375,6.5937,3.9375,22.312-37.375-6.5938-3.9375zm393.53,0.25-20.75,38.25,6.75,3.6562,20.781-38.25-6.7813-3.6562zm-656.75,0.15625-6.5625,12-3.5-2-21.531,37.812,6.6562,3.8125,6.8125-11.938,3.9063,2.1562,20.969-38.156-6.75-3.6875zm360.88,0.03125-12.031,21.812-4-2.3438-16.906,28.875-2.1876-1.2188-21.25,38,6.7188,3.75,16.281-29.156,2,1.1875,12.594-21.563,4.4688,2.4688,21.031-38.094-6.7188-3.7188zm105.72,0.15625-22.312,37.375,6.5937,3.9375,22.312-37.375-6.5938-3.9375zm-829.97,1.3125-21.531,37.844,6.6875,3.7812,21.531-37.812-6.6875-3.8125zm-27.562,1-12.188,21.531-0.5937-0.3125-21.031,38.125,1.5938,0.875-8.9688,15.094,8.75-14.844-6.625-3.9063-22.094,37.5,6.625,3.875,3.5937-6.125,3.7188,2.2188-21.25,34.531,6.5312,4.0312,22.812-37.063-3.7812-2.3438,20.781-34.875-1.7812-1.0625,8.75-15.844,0.4062,0.25,21.438-37.875-6.6875-3.7812zm68.625,0.78125-21.844,37.656,6.625,3.8438,21.844-37.656-6.625-3.8438zm-596.16,0.15625-20.219,34.687-3.8125-2.1875-21.531,37.844,5.75,3.25-1.875,3.25,6.6562,3.8438,21.656-37.781-5.8438-3.3125,0.1875-0.3125,3.75,2.1875,21.906-37.594-6.625-3.875zm506.44,0.25-22.031,37.531,6.625,3.9062,22.031-37.531-6.625-3.9063zm117.78,2.5625-21.594,37.812,6.6562,3.8125,21.594-37.812-6.6563-3.8125zm387.75,3-21.875,37.656,6.6563,3.8438,21.844-37.625-6.625-3.875zm-583.16,2.5635-20.72,38.281l6.75,3.6562,20.719-38.281-6.75-3.6562zm906,1.625-21.781,37.687,6.6562,3.8438,21.781-37.687-6.6563-3.8438zm-844.47,0.0625-22.875,37.031,6.5312,4.0625,22.906-37.031-6.5625-4.0625zm355.53,1.4062-22.469,37.281,6.5625,3.9688,22.5-37.281-6.5938-3.9687zm-311.16,0.125-21.031,38.094,6.7188,3.7188,21.062-38.094-6.75-3.7187zm-217.84,2.125-21,38.125,6.7188,3.6875,21-38.094-6.7188-3.7187zm-178.81,1.9375-22.656,37.156,6.5625,4,22.656-37.156-6.5625-4zm104.19,1.5312-22.656,37.188,6.5625,4,22.656-37.188-6.5625-4zm1110.2,0.90625-21.312,37.938,6.6875,3.75,21.312-37.938-6.6875-3.75zm-1324,0.5625-22,37.531,6.625,3.9062,22-37.563-6.625-3.875zm1279.3,1.9062-21.5,37.844,6.6875,3.8125,21.5-37.875-6.6875-3.7812zm-1031.9,0.03125-22.25,37.438,6.5938,3.9062,22.25-37.406-6.5938-3.9375zm47.125,2.125-20.625,38.344,6.75,3.625,20.625-38.313-6.75-3.6562zm802.47,0.0625-22.156,37.469,6.625,3.9062,22.125-37.469-6.5937-3.9062zm-679.47,1.0312-21.688,37.75,6.6562,3.8125,21.688-37.719-6.6563-3.8438zm380.59,0.5625-22,37.563,6.625,3.875,22-37.563-6.625-3.875zm-705.56,0.375-22.781,37.063,6.5312,4.0312,22.812-37.063-6.5625-4.0312zm29.438,0.625-22.188,37.438,6.5938,3.9375,22.188-37.469-6.5938-3.9062zm1044.8,1.9062-21.531,37.844,6.6562,3.7812,21.562-37.813-6.6875-3.8125zm-207,2.7812-19.5,33.188-5.5313-3.3125-22.344,37.344,4.6562,2.7812-6.9687,12.813-5.4375-3.2188-22.094,37.5,6.625,3.9062,9-15.25,6.3125,3.4375,20.812-38.219-4.6875-2.5625,18.125-30.281,5.5625,3.2812,22.094-37.5-6.625-3.9062zm-295.94,0.5625-22.781,37.094,6.5625,4.0312,22.75-37.125-6.5312-4zm186.72,1.1562-22.062,37.5,6.625,3.9062,22.062-37.5-6.625-3.9062zm592.94,0.5625-20.813,38.25,1.8438,1-17.375,28.625-0.4688-0.28125-22.531,37.219,6.5625,4,20.062-33.125,0.4375,0.28125,22.594-37.188-2-1.2188,18.438-33.875-6.75-3.6875zm-67.063,0.46875-22.375,37.344,5.375,3.1875-0.125,0.21875-2.6562-1.5-21.312,37.969,2.75,1.5312-9.5937,17.406,0.7187,0.40625-9.7813,16.406,1.6876,1-10.781,18.438,6.625,3.875,22-37.562-1.5625-0.90625,10.906-18.312-1.4062-0.84375,9.3438-16.906-2.5938-1.4375,0.4062-0.75,2.6875,1.5,21.25-38-4.8125-2.6875,9.8438-16.406-6.5938-3.9688zm-673.5,0.15625-7.4375,13.531-1.1875-0.71875-7.75,13.156-3.375-2.0625-22.406,37.344,6.5625,3.9375,7.875-13.094,3.625,2.125,7.9062-13.438,1.9688,1.0625,20.969-38.125-6.75-3.7188zm327.31,2.0625-22.281,37.375,6.5937,3.9375,22.281-37.375-6.5937-3.9375zm-300.59,0.21875-22.469,37.313,6.5938,3.9375,22.438-37.281-6.5625-3.9688zm748.91,0.875-15,24.438-3.3437-2.0312-6.875,11.344-4.9063-2.7812-13.938,24.75-4.2813-2.625-22.531,37.25,6.5626,3.9688,14.719-24.344,4.7813,2.6875,6.4687-11.469,4,2.4062,14.844-24.5,3.2813,2,22.781-37.094-6.5626-4zm-943.53,0.40625-20.594,38.344,6.7813,3.625,20.562-38.344-6.75-3.625zm-641.53,0.15625-21.219,38,3.125,1.75-20.031,34.406,6.2188,3.5938-16.688,27-4.4062-2.4688-21.281,38,1,0.5625-5.9062,10.219,6.6562,3.8438,21.75-37.719-1.3438-0.78125,0.90625-1.5938,3.9688,2.4375,22.844-37.031-6.1562-3.8125,21-36-3.1875-1.8438,19.469-34.813-6.7188-3.75zm1530.1,0.375-21.75,37.719,6.6563,3.8438,21.75-37.719-6.6563-3.8438zm-1387.3,0.59375-22.437,37.281,3.5,2.125-10.531,18.375,6.6562,3.8125,4.2188-7.3438,2.625,1.625,22.875-37.031-6.5625-4.0313-4.5,7.3125-0.15625-0.0937,10.875-18.094-6.5625-3.9375zm891.81,0.75-19.875,36.406-2.7812-1.5-20.625,38.344,6.7812,3.6562,19.625-36.5,2.7813,1.5,20.844-38.219-6.75-3.6875zm-745.41,0.03125-2.3125,4.0938-6.4688-3.8438-16.531,27.75,4.6562-8.4688-6.7188-3.6875-20.969,38.125,6.7188,3.7188,10.906-19.844,6.2812,3.75,18.281-30.75-15.312,27.031,6.6875,3.7812,21.438-37.875-6.6562-3.7812zm459.78,1.5938-20.812,38.25,6.75,3.6562,20.812-38.219-6.75-3.6875zm-35.688,0.34375-20.875,38.188,6.75,3.6875,20.875-38.188-6.75-3.6875zm-40.812,0.625-22.25,37.406,6.625,3.9375,22.219-37.406-6.5938-3.9375zm337.56,2.1562-20.844,38.219,6.75,3.6562,20.844-38.219-6.75-3.6562zm615.78,0.03125-22.5,37.281,6.5938,3.9688,22.469-37.281-6.5625-3.9688zm-171.5,0.5-5.375,9.7188-1.4375-0.84375-22.188,37.438,6.5938,3.9062,5.75-9.6875,2.3437,1.2812,21.031-38.094-6.7188-3.7188zm-1206.2,4.2188-22.844,37.031,6.5312,4.0312,22.844-37.031-6.5312-4.0312zm408.84,1.0625-21.188,34.625-3.8125-2.25-22.156,37.469,6.625,3.9062,20.625-34.906,3.75,2.2812,22.719-37.125-6.5625-4zm640.09,1.0938-21.438,37.906,6.6875,3.7812,21.438-37.906-6.6875-3.7812zm-394.06,0.40625-20.688,38.281,6.75,3.6562,20.688-38.281-6.75-3.6562zm325.78,2.375-18.344,32.094,6.7813-12.438-6.75-3.6875-20.812,38.25,3.375,1.8438-0.875,1.5938-2.25-1.3125-21.812,37.656,6.6563,3.8438,13.719-23.688,2.6563,1.4688,19.531-35.813,3.1875,1.8125,21.594-37.812-6.6562-3.8125zm-1116.2,0.25-22.375,37.344,6.5938,3.9688,22.375-37.344-6.5938-3.9688zm654.34,0.625-21.875,37.594,6.625,3.875,21.906-37.625-6.6563-3.8438zm-42.219,0.46875-22.5,37.25,1.1875,0.71875-19.188,32.438,6.5937,3.9062,22.188-37.438-1.1562-0.6875,19.469-32.219-6.5937-3.9688zm447.63,1.8438-20.625,38.344,6.7813,3.625,20.594-38.344-6.75-3.625zm-329.81,2.625-20.906,38.156,6.7188,3.6875,20.938-38.156-6.75-3.6875zm-758.56,1.9062-20.719,38.281,1.5312,0.8125-18.156,33.125,6.7188,3.6875,20.906-38.156-1.5312-0.84375,18-33.25-6.75-3.6562zm377.69,2.0312-21.219,38,6.7188,3.75,21.219-38.031-6.7188-3.7188zm457.06,1.5938-22.406,37.312,6.5938,3.9375,22.406-37.313-6.5937-3.9375zm677.59,0.625-22.812,37.062,6.5313,4.0313,22.812-37.063-6.5314-4.0312zm-218.97,0.15625-21.5,37.844,6.6875,3.8125,21.5-37.844-6.6875-3.8125zm-1004.4,4.4062-22.281,37.375,6.5938,3.9375,22.281-37.375-6.5938-3.9375zm696.91,0.15625-22.938,37,5.7812,3.5625-12.25,21.438,5.125,2.9375-16.563,30.594,3.8125,2.0625-1.25,2.125,6.5938,3.9688,22.344-37.344-5.2501-3.1562,1.2501-2.2812-5.0313-2.7188,17.219-30.156-5.3124-3.0312,13-20.969-6.5313-4.0312zm-1016.8,0.375-22.781,37.094,6.5312,4.0312,22.781-37.094-6.5312-4.0312zm377.37,1.0625-22.438,37.281,6.5938,3.9688,22.438-37.313-6.5938-3.9375zm928.13,0-20.906,38.188,6.75,3.6875,20.906-38.188-6.75-3.6875zm-1344.5,1.6562-19.969,33.813-5.7812-3.2813-21.438,37.875,6.6875,3.7812,19.344-34.156,4.3438,2.5625-5.75,10.5,6.75,3.6875,20.906-38.156-4.5312-2.4688,6.0625-10.25-6.625-3.9062zm396.5,0.40625-20.906,38.188,6.75,3.6875,20.875-38.188-6.7188-3.6875zm-84.938,2-20.75,38.281,6.75,3.6562,20.75-38.281-6.75-3.6562zm618.56,0.0312-21.5,37.844,6.6875,3.7812,21.5-37.813-6.6875-3.8125zm-66.062,0.34375-13.062,23.094-4.7188-2.6875-21.594,37.781,6.6875,3.8125,13.156-23.062,4.8125,2.7188,21.406-37.875-6.6875-3.7812zm-522.09,0.53125-15.844,25.906-2.125-1.1875-21.344,37.938,6.7188,3.75,14.781-26.281,0.96875,0.59375-15.25,26.656,6.6562,3.8125,21.625-37.781-5.6562-3.25,16.031-26.156-6.5625-4zm1063.3,0.84375-22.125,37.469,6.5938,3.9062,22.156-37.469-6.625-3.9062zm-1245.1,0.4688-21.781,37.688,6.6562,3.8438,21.781-37.688-6.6562-3.8438zm1094.1,0-21.188,38.031,6.7188,3.7188,21.188-38.031-6.7187-3.7188zm-174.72,2.375-22.375,37.344,5.75,3.4688-3.75,6.0938,6.5625,4.0312,22.812-37.094-6.0938-3.7188,3.6875-6.1562-6.5938-3.9688zm-493.81,0.375-21.594,37.813,0.2813,0.15625-7.4063,12.625,6.625,3.9062,3.3438-5.6875,2.6562,1.5625,22.094-37.5-3.375-2,4.0312-7.0625-6.6562-3.8125zm-113,0.0312-22.375,37.313,6.3125,3.7812-15.781,27.188,6.6562,3.8438,13.594-23.469,5.2812,3.1875,22.5-37.25-6.5625-3.9688-14.062,23.219-5.125-2.9688,16.156-26.938-6.5938-3.9375zm-194.75,1.4062-15.5,28.813-1.2812-0.78125-22.625,37.188,6.5625,4,17.188-28.219,1.8125,0.96875,20.594-38.344-6.75-3.625zm-86.969,0.25005-22.469,37.281,2.7812,1.6562-18.938,31.344,6.5625,3.9688,22.531-37.25-2.7812-1.6562,18.906-31.375-6.5938-3.9688zm334.34,0.125-15.719,25.406-1.8125-1.0625-22.062,37.5,6.625,3.9062,15.094-25.625,1.5313,0.9375,22.875-37-6.5312-4.0625zm158.31,0.625-21.219,38,6.7188,3.75,21.219-38-6.7187-3.75zm420.81,1.1875-22,37.531,5.4063,3.1875-4.375,7.4062,6.625,3.9062,22.125-37.469-5.5-3.25,4.3437-7.4375-6.625-3.875zm202.84,1.1562-4.125,6.8438-3.2812-1.9688-22.375,37.344,2.7812,1.6562-8.9375,15.906,6.7187,3.75,12.688-22.656,0.6875,0.40625,22.438-37.313-6.5938-3.9688zm-354.63,0.1875-20.594,38.375,6.7812,3.625,20.562-38.375-6.75-3.625zm-830.81,2.25-22.094,37.5,6.625,3.9062,22.094-37.5-6.625-3.9062zm788.75,3.4375-22.469,37.281,6.5625,3.9688,22.5-37.281-6.5938-3.9688zm-253.56,0.53125-21.531,37.813,6.6562,3.8125,21.531-37.813-6.6563-3.8125zm604.97,1.6562-20.594,38.344,6.75,3.625,20.594-38.344-6.75-3.625zm-885.84,0.5-22,37.563,6.6562,3.875,21.969-37.563-6.625-3.875zm397.03,1.125-21.062,38.063,6.7187,3.7188,21.062-38.063-6.7187-3.7188zm-638.13,0.0625-22.687,37.156,6.5625,4,22.656-37.156-6.5312-4zm658.88,0.59375-21.625,37.781,6.6875,3.8125,21.625-37.75-6.6875-3.8438zm-716.34,0.78125-20.875,38.188,6.75,3.6875,20.875-38.219-6.75-3.6562zm1146.2,1.375-20.094,36.688-0.625-0.34375-21.406,37.906,6.6875,3.7812,20.625-36.531,0.6562,0.375,20.875-38.188-6.7187-3.6875zm-250.16,0.3125-21.844,37.656,6.625,3.8438,21.875-37.625-6.6563-3.875zm-344.78,5.1875-20.5,35.656-6.5-4-22.844,37.062,6.5313,4.0312,22.094-35.844-0.4687,0.8125,6.6562,3.8438,21.688-37.75-6.6562-3.8125zm-599.66,0.15625-21.688,37.781,6.6562,3.8125,21.688-37.75-6.6562-3.8438zm1105.7,3.9688-22.562,37.219,6.5937,4,22.531-37.219-6.5625-4zm332.72,0.65625-13.844,24-6.1875-3.5625-21.719,37.719,6.6562,3.8438,13.844-24.031,6.125,3.5625,21.781-37.719-6.6562-3.8125zm-517.34,0.5-21.438,37.875,6.6875,3.7812,21.438-37.875-6.6875-3.7812zm-522.38,2-21.375,37.906,6.6875,3.7812,21.406-37.906-6.7188-3.7812zm324.84,0.40625-22.781,37.094,6.5313,4,22.781-37.094-6.5312-4zm-41.25,1.2812-21.906,37.625,6.625,3.875,21.906-37.625-6.625-3.875zm113.06,2.0938-22.125,37.5,6.625,3.875,22.125-37.469-6.625-3.9062zm-610.38,0.1875-22.5,37.25,6.5938,3.9688,22.469-37.25-6.5625-3.9688zm1151.1,1.5-21.5,37.875,6.125,3.4688-5.6875,10.312,6.7187,3.7188,21-38.125-5.8125-3.2188,5.8125-10.219-6.6563-3.8125zm40.844,0.53125-21.719,37.719,6.6563,3.8125,21.719-37.719-6.6562-3.8125zm-1011.3,0.5-20.594,33.75-0.96875-0.59375-22.75,37.094,6.5312,4.0312,20.688-33.719,0.96875,0.59375,22.656-37.156-6.5312-4zm-203.22,4.3438-7.5312,13.562-6.1875-3.7812-22.625,37.188,6.5625,4,16.656-27.406-8.0312,14.469,6.7188,3.75,21.125-38.062-6.6875-3.7188zm1131.1,0-22.531,37.25,6.5625,3.9688,22.531-37.25-6.5625-3.9688zm-451.66,2.2188-22.125,37.5,6.625,3.875,22.125-37.469-6.625-3.9062zm-591.13,1.9688-17.781,32.094-3.625-2.1875-22.5,37.25,6.5938,3.9688,19.031-31.531,3.9375,2.1875,21.062-38.062-6.7188-3.7188zm1283.6,1.125-21.969,37.562,6.625,3.875,21.969-37.562-6.625-3.875zm-714.03,2.5312-22.625,37.188,6.5625,4,22.625-37.188-6.5625-4zm-307.28,2.9062-20.75,38.25,6.7813,3.6875,20.719-38.281-6.75-3.6562zm-28.875,0.875-20.75,38.281,6.75,3.6562,20.75-38.25-6.75-3.6875zm1031.7,0.625-20.875,38.188,6.75,3.6875,20.844-38.219-6.7188-3.6562zm-836.13,0.3125-21.969,37.594,6.625,3.875,21.969-37.562-6.625-3.9062zm-577.75,0.34375-21.156,38.031,2.75,1.5312-20.562,34.781,6.5938,3.9062,22.156-37.469-2.7812-1.625,19.719-35.438-6.7188-3.7188zm93.938,1.125-20.594,38.344,6.6875,3.5938-19.094,32.656,6.625,3.875,21.969-37.594-6.625-3.875-1.2188,2.0938,19-35.469-6.75-3.625zm63.406,0.34375-20.594,38.375,6.7812,3.625,20.562-38.344-6.75-3.6562zm507.75,0.96875-17.625,30.375-2.3437-1.4062-22.375,37.344,6.5937,3.9375,18.094-30.188,2.4375,1.4375,21.875-37.625-6.6563-3.875zm-675.66,0.0937-21.75,37.719,6.6562,3.8125,21.75-37.688-6.6562-3.8438zm1105.9,0.46875-21.656,37.75,6.6563,3.8125,21.656-37.75-6.6562-3.8125zm-1160.7,0.4688-22.5,37.25,6.5625,3.9688,22.531-37.25-6.5938-3.9688zm-15.938,41.219-5.375-3.1562-11.812,20.125-6.25-3.8125-22.656,37.156,6.5312,4,12.156-19.906,6.5938,3.8438,22.062-37.5-1.25-0.75zm1414.7-40.906-22.688,37.156,6.5625,4,22.688-37.156-6.5625-4zm-588,0.1875-21.938,37.594,1.9375,1.125-20.062,32.812,6.5625,4,22.688-37.125-1.9688-1.2188,19.406-33.312-6.625-3.875zm-887.66,3.5938-21.25,38,6.7188,3.75,21.25-38-6.7188-3.75zm682.69,2.5625-21.75,37.688,6.6563,3.8438,21.75-37.688-6.6563-3.8438zm267.91,1.7188-21.5,37.844,6.6562,3.7812,21.531-37.844-6.6875-3.7812zm382.97,0.21875-14.781,26.688-21.406,34.562,6.5313,4.0625,14.75-23.812,0.5313,0.28125,6.0937-11,1.5313-2.4688-0.125-0.0625,13.594-24.531-6.7187-3.7188zm-741.19,2.7188-21.156,38.031,6.7187,3.7188,21.156-38.031-6.7188-3.7188zm594.22,0.90625-21.281,37.969,6.7187,3.75,21.25-37.969-6.6875-3.75zm-47.875,1.0312-22.156,37.469,6.3124,3.75-21.375,37.344,6.6563,3.8125,21.625-37.781-6.375-3.6562,21.906-37.031-6.5938-3.9062zm-223.78,0.15625-22.031,37.562,6.625,3.875,22.031-37.531-6.625-3.9062zm-484.31,0.53125-22.281,37.375,6.5938,3.9375,22.281-37.406-6.5938-3.9062zm653.47,0.6875-22.469,37.281,4.7813,2.875-19,31.531,6.5937,3.9375,22.438-37.281-4.75-2.875,19-31.5-6.5938-3.9688zm-415.5,0.28125-21.781,37.688,6.6563,3.8438,21.75-37.688-6.625-3.8438zm858.41,0.375-21.344,37.938,6.7187,3.75,21.344-37.938-6.7188-3.75zm-548.16,1.5938-22.438,37.312,6.5625,3.9375,22.438-37.281-6.5625-3.9688zm138.38,0.0625-22.156,37.469,6.625,3.9062,22.125-37.469-6.5938-3.9062zm132.94,0.1875-22.062,37.531,6.625,3.9062,22.062-37.531-6.625-3.9062zm-935.44,2.5625-21.656,37.75,6.6562,3.8438,21.688-37.75-6.6875-3.8438zm97.562,0.65625-21.812,37.688,5.1562,2.9688-18.406,30.688,6.5938,3.9688,22.375-37.344-5.1875-3.0938,17.938-31.031-6.6562-3.8438zm-376.06,0.21875-22.375,37.375,6.5938,3.9375,22.344-37.344-6.5625-3.9688zm613.63,1.5625-22,37.562,6.625,3.875,22-37.562-6.625-3.875zm107.53,0.59375-9.5312,16.844-4.25-2.4688-21.906,37.594,6.6563,3.875,9.75-16.75,4.5625,2.5625,21.406-37.875-6.6875-3.7812zm-281.16,0.4375-22,37.562,6.625,3.875,22.031-37.562-6.6562-3.875zm-390.19,2.4062-21.094,38.062,4.875,2.6875-5.8438,10.406,6.6875,3.75,21.344-37.938-5.0312-2.8125,5.7812-10.438-6.7188-3.7188zm924.28,1.875-6.0937,10.531-2.25-1.2812-21.625,37.812,6.6875,3.8125,6.0312-10.594,2.1563,1.25,21.75-37.688-6.6563-3.8438zm-807.38,0.0937-11.969,19.438-6.125-3.5312-21.781,37.688,6.6562,3.8438,11.406-19.719,5.5312,3.4062,22.812-37.094-6.5312-4.0312zm288.56,0.0312-20.719,33.531-2.75-1.4688-20.719,38.281,0.15625,0.0938-20.781,34.625,6.5938,3.9688,22.375-37.344-0.25-0.15625,17.312-31.969,2.4375,1.5,22.875-37.031-6.5312-4.0312zm-522.16,0.46875-21.25,38,6.6875,3.75,21.25-38-6.6875-3.75zm1441.5,0.4375-22.781,37.094,6.5624,4,22.75-37.094-6.5312-4zm-1061.1,0.5-22.25,37.375,6.5938,3.9375,22.25-37.406-6.5938-3.9062zm953.97,0.65625-21.188,38.031,6.6875,3.75,21.219-38.031-6.7188-3.75zm-463.63,0.71875-20.969,38.125,6.7188,3.6875,20.969-38.125-6.7187-3.6875zm492.69,0.84375-22.781,37.094,6.5313,4.0312,22.781-37.094-6.5313-4.0312zm163,1.4062-21.875,37.625,6.625,3.8438,21.906-37.625-6.6563-3.8438zm-877.22,0.6875-20.938,38.156,6.7188,3.6875,20.969-38.156-6.75-3.6875zm472.47,0.375-20.625,38.312,6.75,3.6562,20.656-38.344-6.7813-3.625zm-106,2.0938-21.719,37.719,6.6563,3.8125,21.719-37.688-6.6562-3.8438zm-472.34,0.53125-22.25,37.406-4.8125-2.9688-22.812,37.094,6.5312,4,22.812-37.062,4.9062,2.875,22.219-37.406-6.5937-3.9375zm843.41,1.0938-20.594,38.344,6.7813,3.625,20.594-38.344-6.7812-3.625zm-1442.9,0.0937-21.906,37.625,6.6562,3.875,21.875-37.625-6.625-3.875zm1274.4,1.9689-21.844,36.062-6.125-3.5-21.688,37.719,4.9375,2.8438-17.906,32.438,6.7187,3.7188,21.062-38.094-4.9062-2.7188,17.75-30.875,6.0312,3.625,22.531-37.219-6.5625-4zm-245.91,0.34375-17.156,30.781-1.5312-0.875-7.625,13.562-5.9688-3.625-22.688,37.125,6.5313,4,4.3437-7.125-12.781,23.625,6.75,3.6562,16.188-29.844,0.625,0.34375,17.281-30.719,1.5625,0.875,21.188-38.031-6.7187-3.75zm-212.09,1.2188-21.5,37.844,6.6563,3.7812,21.531-37.812-6.6875-3.8125zm537.19,3.5312-21.75,37.719,3.625,2.0938-22.156,36.562,6.5625,3.9688,22.562-37.219-3.5938-2.1875,21.406-37.094-6.6563-3.8438zm96.469,0.5-21.156,38.031,6.7187,3.7188,21.156-38.031-6.7188-3.7188zm-168.41,1.2812-22.25,37.406,6.5937,3.9062,22.281-37.406-6.625-3.9062zm230.66,0.71875-22.875,37,6.5312,4.0625,22.875-37.031-6.5312-4.0312zm-604.56,0.4375-21.344,37.938,6.6875,3.7812,21.344-37.938-6.6875-3.7812zm219.34,0.46875-19.438,33.625-6.25-3.4688-21.062,38.094,6.7188,3.7188,18.781-33.969,6.125,3.5312,21.781-37.688-6.6563-3.8438zm-458.91,1.2188-22.5,37.25,6.5625,3.9688,22.531-37.25-6.5937-3.9688zm-436.16,0.28125-20.625,38.312,6.7812,3.6562,20.625-38.344-6.7812-3.625zm411.94,1.25-22.469,37.281,6.5937,3.9375,22.438-37.281-6.5625-3.9375zm-614.75,0.3125-21.5,37.844,6.6875,3.7812,21.469-37.844-6.6562-3.7812zm414.75,1.8438-20.906,38.156,6.75,3.6875,20.906-38.156-6.75-3.6875zm286.78,0.8125-22.562,37.219,4.5937,2.8125-12.625,22.594,6.6875,3.75,21.25-38-4.1562-2.3125,13.375-22.062-6.5625-4zm-753.53,1.3438-21.594,37.781,6.6562,3.8125,21.594-37.781-6.6562-3.8125zm306.59,0.5-19.062,31.438-3.3438-2.0312-13.688,22.406-1.5-0.875-21.875,37.625,6.625,3.875,13.125-22.594,1.1875,0.71875,19.188-31.406,3.3438,2.0312,22.562-37.219-6.5625-3.9688zm1312.6,0.75-22.75,37.094,6.5313,4,22.781-37.094-6.5625-4zm-721.66,0.34375-21,38.125,6.7188,3.6875,21-38.125-6.7188-3.6875zm-809.5,0.0312-22.375,37.344,6.5938,3.9375,22.375-37.344-6.5938-3.9375zm455.62,0.15625-21.875,37.656,6.6562,3.8438,21.844-37.625-6.625-3.875zm401.03,0.875-20.969,38.156,6.75,3.6875,20.938-38.156-6.7187-3.6875zm569.75,3.3125-22.656,37.188,6.5625,4,22.656-37.188-6.5625-4zm-167.94,0.625-22.625,37.188,6.5625,4,22.625-37.188-6.5625-4zm-948.78,0.15625-21.438,37.906,5.4062,3.0625-18.781,30.594,6.5625,4.0312,22.75-37.125-5.5312-3.375,17.719-31.312-6.6875-3.7812zm31.281,0.1875-22.938,37,6.5312,4.0625,22.938-37-6.5312-4.0625zm47.719,1.1562-20.625,38.312,6.7812,3.6562,20.625-38.344-6.7812-3.625zm300.62,1.6562-22.094,37.531,4.9687,2.9062-8.9062,14.438,6.5312,4.0312,22.812-37.094-5.3125-3.25,8.625-14.656-6.625-3.9062zm233.53,0.4063-22.812,37.094,6.5312,4,22.812-37.062-6.5312-4.0312zm-213.41,0.4375-21.375,37.906,6.6875,3.7812,21.375-37.938-6.6875-3.75zm-684.34,0.4375-21.594,37.812,6.6562,3.8125,21.594-37.812-6.6562-3.8125zm270.03,5.125-22.438,37.312,6.5938,3.9688,22.438-37.312-6.5938-3.9688zm1013.2,0.21875-1.5626,2.8438-0.9374-0.53125-21.688,37.75,6.6563,3.8125,1.6875-2.9062,1.6562,0.90625,20.938-38.188-6.75-3.6875zm183.97,1.4375-17.688,29.625-3.5312-1.9688-21.219,38,0.7188,0.40625-14.5,26.812,6.7812,3.6562,20.656-38.281-0.5312-0.28125,10.375-18.594,3.2188,1.9375,22.312-37.375-6.5937-3.9375zm-134.5,3.6875-20.688,33.625-4.4688-2.6875-22.531,37.25,6.5625,3.9688,20.438-33.781,4.4062,2.7188,22.812-37.062-6.5312-4.0312zm-1423.3,5.8125-20.688,38.312,6.75,3.6562,20.688-38.312-6.75-3.6562zm684.16,0.0312-20.844,38.188,6.0313,3.3125-15.781,26.344,6.5625,3.9375,2.5625-4.25-9.625,16.75,6.6563,3.8438,21.656-37.781-6.25-3.5938,7.375-12.312-6.3437-3.7812,14.719-27-6.7187-3.6562zm-647.56,0.625-21.531,37.844,6.6875,3.7812,21.531-37.812-6.6875-3.8125zm-64.969,1.3438-20.938,38.156,6.0625,3.375-13.688,23.875,5.9375,3.4062-11.438,19.344,6.5938,3.9062,22.188-37.438-6.1562-3.6562,11.188-19.5-6.2812-3.5938,13.281-24.156-6.75-3.7188zm327.28,1.1876-22,37.562,6.625,3.875,22-37.562-6.625-3.875zm306.09,1-20.969,38.156,6.75,3.6875,20.937-38.156-6.7187-3.6875zm344.88,0.46875-21.375,37.906,6.6875,3.7812,21.375-37.938-6.6875-3.75zm368.84,0.40625-22.438,37.312,6.5625,3.9688,22.469-37.312-6.5937-3.9688zm-538.16,0.3125-22.375,37.312,6.5625,3.9688,22.406-37.312-6.5938-3.9688zm508.19,0.15625-9.0313,15.531-2.5-1.5312-22.844,37.062,6.5624,4.0312,9.5-15.406,3.0938,1.8125,21.844-37.656-6.625-3.8438zm-464.72,0.4375-21.562,37.812,2.5,1.4062-8.5313,14.219,6.5938,3.9375,22.406-37.281-3-1.8125,8.2813-14.5-6.6875-3.7812zm376.44,1.7188-22.406,37.344,6.5938,3.9375,22.375-37.312-6.5625-3.9688zm326.78,0.3125-20.813,38.219,6.75,3.6875,20.813-38.25-6.75-3.6562zm-951.72,0.5625-7.1562,12.094-1.5938-0.96875-22.812,37.062,6.5312,4.0312,7.4375-12.062,2.0312,1.2188,22.156-37.469-6.5938-3.9062zm-97.719,6.5312-22.094,37.531,6.625,3.875,22.094-37.5-6.625-3.9062zm640.81,0.75-14.219,23.812-0.031,0-0.4063,0.71875-7.6562,12.844,0.4687,0.28125-13.375,24.281,6.7188,3.7188,21-38.125,14.094-23.594-6.5937-3.9375zm-475.09,0.40625-21.469,37.844,6.6875,3.8125,21.469-37.875-6.6875-3.7812zm-546.84,0.5-22.438,37.312,6.5625,3.9375,22.469-37.281-6.5938-3.9688zm836.66,0.9375-20.969,38.156,4.2188,2.3125-14.719,26.25,6.6875,3.75,21.312-37.969-4.2812-2.4062,14.5-26.375-6.75-3.7188zm-741.5,0.46875-20.656,38.312,6.75,3.6562,20.656-38.312-6.75-3.6562zm15.781,0.28125-22.562,37.25,6.5938,3.9688,22.531-37.25-6.5625-3.9688zm941.63,0.4375-20.594,38.344,6.7812,3.625,20.594-38.344-6.7812-3.625zm-762.53,0.71875-21.406,37.875,6.6875,3.7812,21.406-37.875-6.6875-3.7812zm1070.6,0.5625-21.688,37.75,6.6563,3.8438,21.687-37.75-6.6562-3.8438zm-1054.6,1.4062-21.438,37.875,6.6875,3.7812,21.438-37.875-6.6875-3.7812zm28.125,0.78125-20.656,38.312,5.5625,3-14.562,25.438,6.6562,3.8125,21.656-37.75-5.8125-3.3125,13.938-25.844-6.7812-3.6562zm78.375,0.65625-10.875,18.812-5.3125-2.9688-21.188,38.031,6.7188,3.75,10.562-18.969,4.9375,2.875,21.812-37.688-6.6562-3.8438zm544.75,1.6875-10.25,17.906-1.0625-0.625-21.969,37.594,6.625,3.875,10.469-17.906,1.2813,0.75,21.594-37.781-6.6875-3.8125zm-190.31,0.84375-22.312,37.406,6.625,3.9375,22.281-37.406-6.5938-3.9375zm614.88,1.4375-6.125,10.594-5.5313-3.0625-21.062,38.094,6.7188,3.7188,5.9062-10.688,4.9062,2.875,21.812-37.656-6.625-3.875zm-1416,0.53125-21.406,37.906,6.6875,3.75,21.406-37.875-6.6875-3.7812zm1524.7,2.1562-22.25,37.438,6.5938,3.9062,22.25-37.406-6.5938-3.9375zm-700.16,0.5625-18.656,30.219-2.0312-1.1875-8.7813,14.875-0.6875-0.4375-7.5312,12.281-6.3125-3.6875-21.969,37.594,6.6563,3.875,7.25-12.438,5.6875,3.5,9.0937-14.812,1.0938,0.65625,17.969-30.531,1.875,1.1562,22.906-37-6.5625-4.0625zm137,0.34375-22.562,37.25,6.5625,3.9688,22.562-37.219-6.5625-4zm153.16,0.0625-21.188,38.031,2.9375,1.625-20.562,35.25,6.625,3.875,21.938-37.594-2.9375-1.7188,19.906-35.719-6.7188-3.75zm-1030.1,0.6875-21.375,37.906,6.7188,3.7812,21.344-37.906-6.6875-3.7812zm-27.938,0.0625-22.688,37.156,6.5625,4,13.219-21.625-16.469,29.375,6.6875,3.75,21.312-37.969-6.4062-3.5625,4.3438-7.0938-6.5625-4.0312zm209.62,0.28125-22.75,37.094,6.5312,4.0312,22.781-37.125-6.5625-4zm-291.81,1.25-20.906,38.156,6.75,3.6875,20.906-38.156-6.75-3.6875zm810.84,1.5625-22.719,37.125,6.5625,4,22.688-37.125-6.5313-4zm-481.16,3.9688-21.656,37.75,6.6562,3.8125,21.656-37.75-6.6562-3.8125zm324.66,3.125-22.781,37.094,6.5625,4.0312,22.781-37.094-6.5625-4.0312zm670.22,0.84375-20.688,38.281,6.75,3.6562,20.719-38.312-6.7812-3.625zm-768.25,1.4375-22.375,37.344,6.5938,3.9375,22.375-37.344-6.5938-3.9375zm645.69,0.34375-22.188,37.469,6.625,3.9062,22.188-37.438-6.625-3.9375zm-1139.5,2.5938-22.438,37.281,6.5938,3.9688,22.438-37.281-6.5938-3.9688zm661.75,0.28125-22.781,37.062,6.5313,4.0312,22.812-37.094-6.5625-4zm-771.16,0.21875-22.188,37.438,6.625,3.9062,22.188-37.438-6.625-3.9062zm447.03,0.59375-22.688,37.156,6.5625,4,22.656-37.156-6.5312-4zm-143,1.25-20.906,38.188,6.7188,3.6875,20.938-38.188-6.75-3.6875zm893.03,0.65625-20.75,38.25,6.75,3.6562,20.75-38.25-6.75-3.6562zm-1171.8,0.5625-21.125,38.062,1.1875,0.65625-2.125,3.5625-1.4062-0.84375-22.406,37.312,6.5625,3.9688,10.656-17.75,1.5312,0.90625,22.219-37.438-1.5625-0.9375,13.188-23.75-6.7188-3.75zm245.94,0.5-21.469,37.844,6.6875,3.7812,21.469-37.844-6.6875-3.7812zm1152.8,1.125-21.406,37.875,6.6875,3.7812,21.406-37.906-6.6875-3.75zm-700.19,0.65625-20.656,38.312,6.7812,3.625,20.625-38.312-6.75-3.625zm775.84,0.0937-21.469,37.844,6.6875,3.7812,21.438-37.844-6.6562-3.7812zm-1014.6,0.5625-21.188,38.031,6.7188,3.7188,21.188-38.031-6.7188-3.7188zm831.19,0.21875-20.906,38.188,1.9063,1.0312-2.6563,4.75,6.7188,3.75,21.156-38.062-2.125-1.1875,2.625-4.7812-6.7187-3.6875zm-368.5,0.0625-21.031,38.125,6.7188,3.7188,21.031-38.125-6.7187-3.7188zm430.94,0.1563-22.594,37.219,6.5625,3.9688,22.625-37.188-6.5938-4zm-558.06,0.21875-21.375,37.938,6.6875,3.75,21.375-37.906-6.6875-3.7812zm71.469,1.2188-21.469,37.875,6.6875,3.7812,21.469-37.844-6.6875-3.8125zm-798.19,1.625-19.75,33.562-1.0938-0.625-21.344,37.938,6.6875,3.7812,19.031-33.844,1,0.59375,22.094-37.531-6.625-3.875zm883.97,2.3438-21.906,37.625,6.6563,3.875,21.875-37.625-6.625-3.875zm-189.16,1.0938-20.75,38.281,6.7813,3.6562,20.719-38.281-6.75-3.6562zm-592.09,1.5938-22.875,37.031,6.5312,4.0625,22.875-37.031-6.5312-4.0625zm54.156,1.875-22.281,37.406,6.625,3.9375,22.25-37.406-6.5938-3.9375zm92.344,0.8125-10.875,18.656-3.25-1.75-20.562,38.375,6.7812,3.625,10.125-18.875,2.4688,1.4375,21.969-37.594-6.6562-3.875zm1099.7,0.15625-20.906,38.188,5.5312,3.0312-16.594,30.375,6.75,3.6875,20.875-38.188-5.5625-3.0312,16.656-30.344-6.75-3.7188zm-166.81,1.2188-22.438,37.312,6.5938,3.9375,22.438-37.281-6.5937-3.9688zm-143.69,0.6875-21.281,37.969,6.6875,3.75,21.281-37.969-6.6875-3.75zm78.688,0.3125-10.031,18.125-0.625-0.375-21.688,37.75,6.6562,3.8125,10.375-18.031,0.9376,0.53125,21.094-38.094-6.7187-3.7188zm-1279.2,0.21875-20.75,38.281,2.8125,1.5312-5.125,8.4688,6.5938,3.9688,22.438-37.281-4.0312-2.4375,4.8125-8.8438-6.75-3.6875zm1073.1,2.4375-21.25,38,6.7187,3.75,21.25-38-6.7187-3.75zm-357.91,0.59375-22.375,37.344,6.5625,3.9375,22.406-37.312-6.5938-3.9688zm427.72,0.15625-21.969,37.562,3.5,2.0625-20.438,34.688,6.625,3.9062,0.7188-1.25,3.5625,2.0625,21.875-37.625-6.625-3.875-0.7188,1.25-0.25-0.15625,20.344-34.75-6.625-3.875zm-862.31,0.28125-20.969,34.812-3.125-1.7812-21.469,37.875,6.6875,3.7812,20-35.25,3,1.8125,22.469-37.281-6.5938-3.9688zm-48.031,0.0625-20.844,38.219,6.75,3.6875,20.844-38.219-6.75-3.6875zm224.12,0.0625-21.688,37.75,6.6562,3.8438,21.688-37.75-6.6562-3.8438zm159.59,0.5-21.562,37.812,0.5,0.28125-2.9688,4.875,6.5625,4,22.656-37.156-1.4688-0.90625,2.9375-5.125-6.6562-3.7812zm16.5,0.8125-21.844,37.656,6.6562,3.8438,21.844-37.656-6.6562-3.8438zm984.91,0.125-6.7813,11.031-0.6562-0.375-22.156,37.469,6.625,3.9062,6.5312-11.062,0.25,0.15625,22.75-37.125-6.5625-4zm-919.09,1.2188-22.781,37.094,6.5313,4.0312,22.812-37.094-6.5625-4.0312zm-729.5,0.34375-20.719,38.281,6.75,3.6562,20.719-38.281-6.75-3.6562zm1345.9,0.21875-22,37.562,6.625,3.9062,22-37.562-6.625-3.9062zm-1195.2,0.375-21.344,37.938,6.6875,3.75,21.344-37.906-6.6875-3.7812zm545.47,1.0938-20.969,38.156,6.75,3.6875,20.938-38.125-6.7188-3.7188zm-328.06,1-18.188,30.812-5.9375-3.6562-22.812,37.094,6.5625,4.0312,18.75-30.531,6.125,3.625,22.094-37.469-6.5938-3.9062zm-95.719,1.4375-21.375,37.906,6.6875,3.75,21.406-37.906-6.7188-3.75zm558.94,2.75-20.656,38.312,6.7812,3.6562,20.625-38.312-6.75-3.6562zm-121.56,1.5312-20.656,38.312,6.75,3.625,20.656-38.312-6.75-3.625zm491.56,0.4375-22.75,37.094,6.5625,4,22.75-37.094-6.5625-4zm-740.94,0.84375-21.688,37.75,6.6562,3.8125,21.688-37.719-6.6562-3.8438zm356.34,1.3438-20.594,38.344,5.5938,3.0312-21.094,36.281,6.6563,3.875,21.844-37.656-5.5312-3.2188,19.906-37-6.7812-3.6562zm-323.03,0.5-20.75,38.25,6.75,3.6562,20.75-38.25-6.75-3.6562zm99.062,0.0625-5.6562,9.9062-3.9062-2.3125-22.281,37.375,4.6875,2.8125-18.219,30.875,6.625,3.9062,22.125-37.5-4.6875-2.75,1.9375-3.25,4.4062,2.5312,21.625-37.781-6.6562-3.8125zm-352.59,0.875-21.75,37.688,6.6562,3.8438,21.75-37.688-6.6562-3.8438zm295.56,3.3438-11.594,20.125-2.6875-1.625-22.219,37.438,3.1562,1.875-16.844,28.438,6.625,3.9062,22.156-37.469-3.1562-1.875,6.5312-10.969,2.9688,1.6875,21.719-37.719-6.6562-3.8125zm1051.3,0.375-11.656,20-5.2812-3.1875-22.469,37.281,6.5625,3.9688,11.969-19.844,5.5937,3.2812,21.906-37.625-6.625-3.875zm-1377.4,2.875-20.719,38.281,6.75,3.6562,20.719-38.281-6.75-3.6562zm1301.4,0.90625-21.625,37.781,6.6563,3.8125,21.656-37.75-6.6876-3.8438zm-36.031,0.8125-12.125,21.875-6.3125-3.625-21.656,37.75,6.6563,3.8125,12.438-21.688,6.5938,3.6562,21.125-38.031-6.7188-3.75zm-1069,1.25-22.094,37.5,6.5938,3.9062,22.094-37.5-6.5938-3.9062zm336,0.4375-21.062,38.094,6.7187,3.7188,21.063-38.094-6.7188-3.7188zm263.94,0.5625-21.719,37.719,6.6562,3.8438,21.719-37.719-6.6563-3.8438zm112.72,1.5625-21.094,38.062,6.7188,3.75,21.094-38.094-6.7187-3.7188zm263.44,1.4375-21.25,37.969,4.3125,2.4062-16.156,26.438,6.5625,4,20.781-34.062-2.0312,3.7812,6.5,3.5625-9.7813,18.125,6.7813,3.6562,20.688-38.281-6.5312-3.5312,9.8125-18.125-6.75-3.6562-16.938,31.281-4.4688-2.7188,15.156-27.125-6.6875-3.7188zm-612.97,0.59375-15.125,27.562-3.0625-1.7188-21.531,37.812,6.6562,3.8125,15.625-27.406,3.2188,1.7812,20.969-38.156-6.75-3.6875zm88.375,0.15625-18.469,32.531-1.3438-0.75-21.094,38.094,6.7187,3.7188,18.094-32.688,1.3125,0.71875,21.469-37.844-6.6875-3.7812zm53.438,0.125-22.281,37.406,4.8437,2.875-16.125,27.719,6.625,3.875,21.938-37.625-4.7812-2.7812,16.375-27.531-6.5938-3.9375zm-13.5,2.6875-20.719,38.281,6.75,3.6562,20.719-38.281-6.75-3.6562zm-844.88,1.6875-21.719,37.719,5.9688,3.4375-8.4375,14.406,6.6562,3.875,22-37.531-6.125-3.625,8.3125-14.438-6.6562-3.8438zm1179,0.15625-21.781,37.688,0.031,0.0312-10.719,18.094,6.625,3.9062,22.188-37.438-0.2813-0.15625,10.594-18.281-6.6563-3.8438zm196.78,2.75-21.875,37.625,5.2188,3.0312-6,10.438,6.6562,3.8438,21.75-37.688-5.1562-2.9688,6.0625-10.406-6.6563-3.875zm-364.88,0.625-22.906,37,6.5312,4.0625,22.906-37.031-6.5313-4.0312zm35.969,0.78125-22.719,37.125,6.5313,4.0312,22.75-37.125-6.5625-4.0312zm-789,0.34375-18.75,33.969-1.375-0.84375-22.406,37.344,6.5938,3.9375,20.062-33.469,1.5938,0.875,21-38.125-6.7188-3.6875zm993.38,2.25-20.875,38.219,0.6875,0.375-3.0937,5.3125,6.6562,3.875,21.969-37.562-1.6563-0.96875,3.0313-5.5625-6.7188-3.6875zm-39.531,0.8125-13.219,23.688-1.4062-0.875-18.469,30.156-2.9375-1.6875-21.656,37.75,2.25,1.2812-12.875,22.438-1.4687-0.90625-11.625,18.875-3.6563-2.1562-22.156,37.469,6.625,3.9062,11.25-19.031,3.2812,2.0312,17.25-28.031,1.7813,1.0312,21.688-37.75-2.25-1.3125,14.094-24.562,2.6875,1.625,14.312-23.344,2.0001,1.125,21.219-37.969-6.7187-3.75zm-237.16,0.71875-19.156,31.469-6.375-3.875-8.1875,13.562-6.5937-3.8438-21.906,37.594,6.6563,3.875,7.9687-13.656,6.0938,3.6875,19.094-31.5,6.3438,3.875,22.625-37.219-6.5625-3.9688zm-364.53,0.78125-11.188,19.719-6.6875-3.6562-20.875,38.188,4.9375,2.6875-17.25,31.344,6.75,3.7188,20.969-38.156-4.9375-2.7188,7.1562-13.094,6.3438,3.625,21.438-37.875-6.6562-3.7812zm-688.09,0.9375-21.406,37.906,6.6875,3.7812,21.406-37.906-6.6875-3.7812zm210.66,2.4062-22.719,37.125,6.5312,4,22.75-37.125-6.5625-4zm1365.4,3.0938-20.906,38.156,6.7188,3.6875,20.937-38.156-6.75-3.6875zm-1287.6,0.25-7.7812,13.375-4.6562-2.7812-22.219,37.438,2.0312,1.1875-21.281,34.969,6.5625,4,22.625-37.188-2.0312-1.2188,6.5938-11.125,4.875,2.8438,21.906-37.625-6.625-3.875zm599.75,0.0937-21.781,37.656,6.6563,3.8438,21.781-37.656-6.6562-3.8438zm254.94,0.0313-22.219,37.438,6.5938,3.9062,22.219-37.406-6.5937-3.9375zm-660.72,3.0938-20.844,38.219,6.7188,3.6875,20.844-38.219-6.7188-3.6875zm-386.09,0.96875-19.469,31.688-0.21875-0.125-1.9688,3.6562-1.125,1.8438,0.0937,0.0625-17.562,32.781,0.15625,0.0625-6.3438,10.812,6.625,3.875,22.031-37.531-1.1562-0.6875,4.0625-7.5938,21.438-34.844-6.5625-4zm368.34,0.28125-21.281,37.969,6.6875,3.75,21.312-37.969-6.7188-3.75zm741.09,6.1875-21.031,38.094,6.7188,3.7188,21.031-38.125-6.7187-3.6875zm395.38,0.34375-14.781,27.469-1.2813-0.6875-20.625,38.312,6.7813,3.6562,14.781-27.469,1.2812,0.6875,20.594-38.344-6.75-3.625zm-1449.6,2.2812-20.719,38.25,6.75,3.6562,20.719-38.25-6.75-3.6562zm1484.8,0.65625-21.812,37.656,6.6562,3.8438,21.812-37.656-6.6563-3.8438zm-1598.7,1.5938-22.781,37.094,6.5312,4,22.812-37.062-6.5625-4.0312zm928.44,0.25-13.125,21.875-0.5313-0.28125-7.2812,13.344-1.4375,2.4062,0.094,0.0625-12.219,22.406,6.75,3.6875,13.625-24.969,20.719-34.562-6.5938-3.9688zm539.25,0.15625-8.375,14.062-6.25-3.8438-22.875,37.031,6.5313,4.0312,11.375-18.406-2.6876,4.5,6.625,3.9375,22.25-37.406-6.5937-3.9062zm-567.06,1.5938-22.594,37.219,6.5625,3.9688,22.594-37.188-6.5625-4zm-223.97,0.25-21.875,37.656,6.1562,3.5625-10.719,18.906,6.6875,3.7812,21.469-37.875-6-3.375,10.906-18.781-6.625-3.875zm405.66,0.8125-20.906,38.188,6.75,3.6875,20.906-38.188-6.75-3.6875zm-701.34,1.8125-20.594,38.344,6.75,3.625,20.625-38.344-6.7812-3.625zm-188.97,0.59375-11.531,21.281-1.8438-1-20.812,38.219,6.75,3.6875,11.562-21.281,1.875,1.0312,20.75-38.281-6.75-3.6562zm1319.8,0.75-22.875,37.031,6.5312,4.0312,22.875-37.031-6.5312-4.0312zm-193.22,0.34375-11.312,18.719-4.0313-2.4375-22.562,37.219,6.5625,3.9688,11.344-18.719,4.0938,2.4688,22.5-37.25-6.5938-3.9688zm-1225.6,0.21875-21.656,37.75,4.7188,2.7188-19.656,34.156,1.9375,1.0938-20.469,34.031,6.5938,3.9375,22.438-37.281-1.9375-1.1875,19.812-34.5-4.75-2.7188,19.625-34.188-6.6562-3.8125zm264.12,1.625-21,38.125,1,0.5625-22.219,37.219,6.5938,3.9375,22.312-37.375-2.3438-1.4062,1.4062,0.78125,20.969-38.125-6.7188-3.7188zm121.31,1.0312-21.125,37.219-1.2812-0.78125-22.625,37.188,2.625,1.5938-19.688,32.094,6.5625,4,22.75-37.125-2.625-1.5938,19.281-31.719,1.3438,0.78125,21.469-37.875-6.6875-3.7812zm47.75,0.5625-21.875,37.625,6.6562,3.8438,21.875-37.625-6.6562-3.8438zm484.31,0.0625-21.656,37.781,6.6875,3.8125,21.625-37.75-6.6563-3.8438zm-688.03,0.0312-22.125,37.469,6.625,3.9062,22.125-37.469-6.625-3.9062zm-195,0.90625-21.688,37.75,6.6562,3.8438,21.688-37.75-6.6562-3.8438zm586.25,0-22.5,37.25,6.5624,3.9688,22.531-37.25-6.5938-3.9688zm409.19,1.2812-16.656,29.531-5-2.7812-21.25,37.969,6.7188,3.75,16.562-29.562,4.9375,2.7812,21.375-37.906-6.6875-3.7812zm-68.562,1.3438-19.188,31.969-2.3438-1.3125-21.125,38.031,6.7188,3.75,18-32.438,2.125,1.2812,22.375-37.344-6.5625-3.9375zm147.72,1.375-22.781,37.094,6.5625,4.0312,22.781-37.094-6.5625-4.0312zm-556.25,1.3125-22.469,37.281,2.3125,1.4062-8.4375,15.094,6.7188,3.75,21.219-38.031-1.5938-0.875,8.8438-14.656-6.5938-3.9688zm-47.281,0.5-18.812,33.875-1.3125-0.75-21.812,37.656,3.0625,1.75-7.8438,12.844,6.5312,4,22.719-37.125-3.5938-2.1875,5.25-9.0625,1.375,0.78125,21.156-38.062-6.7188-3.7188zm685.28,0.3438-22.063,37.531,6.625,3.875,22.063-37.531-6.625-3.875zm-955.03,0.0937-21.719,37.719,4.0312,2.3125-14.438,25.406,6.6875,3.8125,21.5-37.844-3.9688-2.2812,14.562-25.312-6.6562-3.8125zm434.16,2.625-21.156,38.031,6.6875,3.7188,21.188-38-6.7188-3.75zm-564.28,1.5938-22.219,37.438,6.625,3.9062,22.219-37.438-6.625-3.9062zm1186.3,0.875-20.875,38.188,4.5312,2.4688-20.188,34.812-0.6875-0.4375-22.688,37.125,6.5625,4,22.312-36.5,0.6875,0.40625,21.875-37.625-4.5312-2.625,19.75-36.125-6.75-3.6875zm-1231.9,2.1875-22.25,37.406,6.5938,3.9062,22.281-37.406-6.625-3.9062zm-223.28,1.5625-20.656,38.312,6.75,3.6562,20.688-38.312-6.7813-3.6562zm506.72,1.0312-22.906,37.031,6.5312,4.0312,22.906-37-6.5312-4.0625zm724.78,0.5-22.375,37.344,6.5937,3.9375,22.375-37.344-6.5937-3.9375zm101.06,1.8125-20.75,38.25,6.7812,3.6875,20.719-38.281-6.75-3.6562zm-438.47,2.2188-22.406,37.312,6.5937,3.9688,22.406-37.312-6.5938-3.9688zm-573.34,0.3125-22.438,37.281,6.5625,3.9688,22.469-37.312-6.5938-3.9375zm826.91,1-22.781,37.094,6.5625,4.0312,22.75-37.094-6.5313-4.0312zm-554.06,0.125-21.5,37.844,6.6875,3.7812,21.5-37.812-6.6875-3.8125zm600.84,2.7812-22.469,37.281,6.5625,3.9688,22.469-37.281-6.5625-3.9688zm-119.34,1.75-22.531,37.25,6.5625,3.9688,22.531-37.25-6.5625-3.9688zm-1028.3,0.59375-21.531,37.812,6.6875,3.8125,21.531-37.844-6.6875-3.7812zm1358.3,2.0625-20.625,38.344,6.75,3.625,20.625-38.344-6.75-3.625zm-560.97,1.125-22.344,37.344,6.5937,3.9688,22.344-37.375-6.5938-3.9375zm706.28,3.3438-22.625,37.188,6.5625,4,22.625-37.188-6.5625-4zm-748.69,1.4062-13.281,24.344-1.4375-0.8125-21.406,37.906,6.7188,3.7812,13.656-24.25,1.6563,0.90625,20.844-38.219-6.75-3.6562zm-739.44,0.0312-16.531,29.156-3.375-2.0938-22.844,37.062,6.5313,4.0312,17.656-28.656,3.7813,2.125,21.469-37.844-6.6875-3.7812zm1524.2,0.25-21.375,37.906,6.6875,3.7812,21.406-37.906-6.7188-3.7812zm-1114.9,1.4062-21.562,37.781,6.6562,3.8125,21.594-37.812-6.6875-3.7812zm465.59,0.0937-8.6562,15.688-6.1563-3.8125-22.812,37.062,6.5313,4.0312,17.969-29.156-7.9062,14.281,3.2187,1.7812-14.75,25.594-6.1562-3.4688-21.406,37.906,5.875,3.3125-19.625,32.25,6.5625,3.9688,22.625-37.188-5.875-3.5938,14.188-25.188,6.0625,3.5,21.719-37.719-3.25-1.875,18.562-33.656-6.7188-3.7188zm-399.53,1.1562-22.219,37.469,6.625,3.9062,22.188-37.438-6.5938-3.9375zm32.344,0.8125-19.375,32.531,6.1562-10.656-6.6562-3.8438-21.781,37.688,6.6562,3.8438,12.781-22.125,6.5625,3.9062,22.25-37.406-6.5938-3.9375zm213.62,1.4062-21.094,38.094,6.7188,3.7188,21.094-38.094-6.7188-3.7188zm721.66,0.3125-7.0937,11.5-6.4376-4-22.906,37,6.5,4.0312,7.125-11.469,6.0312,3.7188-12.781,22.5,6.6875,3.8125,21.5-37.844-5.625-3.2188,13.531-22-6.5313-4.0312zm107.44,0.4375-21.062,38.094,6.75,3.7188,21.031-38.094-6.7188-3.7188zm-944.56,0.28135-22.562,37.219,4.6875,2.8438-21.562,36.375,5.3438,3.1562-15.094,24.406,6.5312,4.0312,22.875-37.031-5.5-3.375,14.656-24.719-4.7188-2.7812,21.906-36.156-6.5625-3.9688zm189,0.25-22.375,37.344,6.5937,3.9375,22.344-37.344-6.5625-3.9375zm-665.03,1.125-20.813,38.25,6.75,3.6562,20.813-38.219-6.75-3.6875zm1137.7,0.1875-17.344,31.875-0.3124-0.1875-22.656,37.156,6.5625,4,19.062-31.281,0.6563,0.34375,20.781-38.25-6.75-3.6562zm-895.34,0.0625-22.219,37.438,6.5938,3.9062,22.219-37.406-6.5938-3.9375zm-76.75,2.875-22.438,37.281,2.4375,1.4688-1.5312,2.6562-3.1875-1.7188-7.5,13.969-0.34375-0.21875-21.656,37.75,6.6562,3.8125,7.9688-13.875,1.0625,0.5625,4.2812-7.9688,2.2188,1.2812,21.75-37.719-2.375-1.375,19.219-31.969-6.5625-3.9375zm673.5,1.4688-20.844,38.219,6.7187,3.6875,20.875-38.219-6.75-3.6875zm-35.938,1.625-21.969,37.562,4.9687,2.9062-1.75,3.1562,6.75,3.6875,21.031-38.094-4.1875-2.3125,1.7812-3.0312-6.625-3.875zm112,0.34375-21.656,37.781,6.0937,3.5-14.406,23.688,6.5625,4,19.219-31.625-5.0625,8.9688,6.6875,3.7812,21.406-37.906-6.6875-3.75-13.125,23.219-6.1875-3.75,13.812-24.062-6.6563-3.8438zm182.28,4.4062-22.406,37.312,6.5938,3.9688,22.406-37.312-6.5937-3.9688zm-871.03,0.1875-22.156,37.469,6.625,3.9062,22.156-37.469-6.625-3.9062zm-416.69,0.15625-21.375,37.906,6.6875,3.7812,21.375-37.906-6.6875-3.7812zm281.72,0.53125-21.625,37.781,6.6875,3.8125,21.625-37.781-6.6875-3.8125zm1279.3,0.34375-20.938,38.156,6.7188,3.6875,20.937-38.156-6.7187-3.6875zm-956.88,1.875-21.812,37.688,6.6562,3.8438,21.812-37.688-6.6562-3.8438zm-160.06,1-22.031,37.531,6.625,3.9062,22.031-37.531-6.625-3.9062zm897.59,1.2812-22.25,37.406,6.625,3.9375,22.25-37.438-6.625-3.9062zm106.78,1.25-21.375,37.906,6.6875,3.7812,21.375-37.906-6.6875-3.7812zm70.438,0.0312-22.312,37.375,6.5938,3.9375,22.312-37.375-6.5937-3.9375zm-1436.4,1.625-22.844,37.062,6.5312,4.0312,22.875-37.062-6.5625-4.0312zm62.562,0.375-21.469,37.844,6.6875,3.8125,21.469-37.875-6.6875-3.7812zm581.5,0.0625-22.438,37.281,6.5625,3.9688,22.438-37.312-6.5625-3.9375zm508.59,0.8125-22.688,37.156,6.5312,4,22.719-37.125-6.5625-4.0312zm352.25,1.625-21.125,38.062,6.7187,3.7188,21.125-38.062-6.7187-3.7188zm-708.16,1.0625-10.75,17.969-6.3437-3.4688-20.875,38.188,6.75,3.6875,10.031-18.344,5.4063,3.25,22.375-37.344-6.5938-3.9375zm-122.66,1.1875-22.781,37.094,6.5625,4,22.75-37.094-6.5312-4zm213,3.75-12.5,21.281-2.5938-1.5625-22.5,37.25,6.5625,3.9688,12.781-21.188,2.8437,1.6875,22.031-37.562-6.625-3.875zm407.94,2.25-21.344,37.906,6.6874,3.7812,21.344-37.938-6.6875-3.75zm-1119.3,1.3125-21.375,37.906,6.6875,3.7812,21.406-37.906-6.7188-3.7812zm228.62,3-22.719,37.125,3.8438,2.3438-13.156,22.125,6.5938,3.9375,22.25-37.438-3.6875-2.1562,13.406-21.938-6.5312-4zm710.69,0.15625-21.594,37.812,6.6875,3.8125,21.594-37.812-6.6875-3.8125zm-615.38,0.1875-21.562,37.812,6.6562,3.8125,21.562-37.812-6.6562-3.8125zm948.94,1.375-20.969,38.156,6.75,3.6875,20.938-38.125-6.7187-3.7188zm-346.41,0.25-12.125,22.531-3.6563-2.1875-22.438,37.312,6.5938,3.9375,13.25-22.062,4.5,2.4375,20.656-38.312-6.7812-3.6562zm-1125,1.6875-20.469,35.281-1.9062-1.125-18.344,30.844-5.0312-2.9062-21.781,37.688,6.6563,3.8438,17.938-31.062,4.9062,2.9375,20.875-35.125,1.9375,1.125,21.844-37.656-6.625-3.8438zm752.66,2.8438-22.938,37,6.5312,4.0312,22.938-37-6.5312-4.0312zm9.8125,0.25-21.75,37.688,6.6562,3.8438,21.75-37.688-6.6562-3.8438zm585.22,0.1875-22.125,37.5,6.625,3.9062,22.125-37.5-6.625-3.9062zm-1217.5,0.84375-22.625,37.156,6.5625,4,6.9688-11.438-10.938,19.719,6.7188,3.7188,6.0312-10.875,5.0625,2.8125,21.062-38.094-6.7188-3.7188-6.0312,10.875-4.2812-2.375,4.75-7.8125-6.5625-3.9688zm-196.09,0.5-22.844,37.062,6.5313,4.0312,22.844-37.062-6.5312-4.0312zm1159.8,0.4375-22.062,37.531,3.0938,1.8125-4.0313,7.5312,5.5625,2.9688-20.969,36.406,6.6562,3.8125,21.719-37.719-5.5-3.1562,19.906-37.031-1.9687-1.0625,4.2187-7.1875-6.625-3.9062zm-767.91,1.5-22.437,37.281,6.5938,3.9688,22.437-37.312-6.5938-3.9375zm70.438,1.4062-16,28.188-2.375-1.375-21.875,37.625,6.6562,3.875,16.312-28.062,2.4375,1.4062,21.531-37.844-6.6875-3.8125zm231.72,1.9375-21.094,38.094,6.7188,3.7188,21.094-38.094-6.7188-3.7188zm367.25,0.28125-22.281,37.375,6.5937,3.9375,22.312-37.375-6.625-3.9375zm-821.84,0.65625-22.906,37,1.625,1-12,19.969,6.5625,3.9375,22.438-37.312-1.375-0.8125,12.188-19.719-6.5312-4.0625zm807.03,0.15625-17.25,30.469-3.4375-1.875-2.0937,3.8125-4.25-2.5625-22.375,37.375,6.5937,3.9375,2.2813-3.8125,5.5937,3.0625,16.844-30.625,3.3125,1.875,21.469-37.875-6.6875-3.7812zm-883.41,3.0625-22.781,37.094,6.5625,4.0312,22.75-37.094-6.5312-4.0312zm821.38,1.6875-19.594,36.438-1.2187-0.71875-22.188,37.469,6.625,3.9062,21.188-35.812,1.3437,0.71875,20.594-38.344-6.75-3.6562zm396.06,1.7188-22.906,37,6.5313,4.0625,22.906-37.031-6.5313-4.0312zm-27.906,0.0937-21.438,37.875,6.6875,3.7812,21.438-37.844-6.6875-3.8125zm-737.09,1.3125-21.188,38,6.5625,3.6562-16.812,29.594-1-0.5625-17.219,29.781-0.5625-0.3125-21.406,37.875,6.6875,3.7812,16.875-29.875,0.46875,0.28125,18.75-32.406,1.0312,0.5625,21.531-37.812-6.5625-3.75,19.562-35.094-6.7188-3.7188zm-57.031,0.3438-21.906,37.594,6.6562,3.875,21.906-37.625-6.6562-3.8438zm762.13,0.75-21.25,37.969,6.7188,3.75,21.25-37.969-6.7188-3.75zm235.59,0.28125-21.031,38.094,6.7187,3.7188,21.031-38.094-6.7188-3.7188zm-65.844,0.75-22.812,37.062,6.5625,4.0312,22.781-37.094-6.5313-4zm-387.47,0.125-21.531,37.844,6.6875,3.7812,21.531-37.812-6.6875-3.8125zm-1005.8,1.7812-20.594,38.344,6.7812,3.625,20.594-38.344-6.7812-3.625zm261.13,0-22.281,37.375,6.5938,3.9375,22.281-37.375-6.5938-3.9375zm905.87,1.9688-21.031,38.094,6.75,3.7188,21.031-38.125-6.75-3.6875zm-193.91,0.0937-21.219,38,6.7188,3.75,21.219-38-6.7187-3.75zm-856.91,0.125-22.719,37.125,6.5312,4,22.719-37.125-6.5312-4zm486.53,0.21875-21.219,38,6.6875,3.75,21.25-38-6.7188-3.75zm-185.81,0.5625-21.969,37.562,2.7188,1.5938-6.8125,11.625,6.625,3.875,22.031-37.531-2.7812-1.625,6.8125-11.625-6.625-3.875zm954.69,0.5625-21.531,37.812,6.5938,3.75-15.125,26.688,6.6875,3.7812,21.469-37.875-6.5625-3.7188,15.156-26.656-6.6875-3.7812zm-1445.8,0.0937-22.812,37.062,6.5625,4.0312,22.781-37.062-6.5312-4.0312zm91.562,3.4375-22.5,37.25,6.5625,4,22.531-37.281-6.5938-3.9688zm173.75,1.375-20.719,38.281,1.25,0.6875-4.25,7.7188-2.7188-1.5-21.031,38.094,6.75,3.7188,18.531-33.625,2.7188,1.5,21.031-38.094-1.4688-0.8125,6.6563-12.312-6.75-3.6562zm496.75,2.8125-22.156,37.469,6.625,3.9062,22.156-37.469-6.625-3.9062zm803.78,0.28125-20.75,38.281,6.75,3.6562,20.75-38.25-6.75-3.6875zm-456,0.0625-21.844,37.656,6.6563,3.8438,21.844-37.656-6.6562-3.8438zm-370.44,0.0625-20.719,38.281,5.6562,3.0625-20.531,35,6.625,3.875,22.031-37.562-5.625-3.2812,19.312-35.719-6.75-3.6562zm438.63,0.8125-12.375,22.531-3.375-2.0312-22.344,37.344,6.5625,3.9375,13.281-22.156,4.0312,2.25,20.938-38.188-6.7187-3.6875zm-795,0.3125-21.406,37.906,6.6875,3.7812,21.406-37.906-6.6875-3.7812zm314.34,0.125-21.281,35.469-5.5938-3.3438-22.281,37.375,6.5938,3.9375,21.188-35.531,5.5625,3.375,22.375-37.344-6.5625-3.9375zm141.5,2.9688-22.062,37.531,6.625,3.875,22.062-37.531-6.625-3.875zm-910.47,3.8125-22.469,37.312,6.5937,3.9375,22.438-37.281-6.5625-3.9688zm631.97,0.4375-20.625,38.344,6.7812,3.625,20.594-38.344-6.75-3.625zm246.78,0.34375-21.25,38,6.7187,3.75,21.25-38-6.7187-3.75zm587.03,0.625-20.75,38.25,6.75,3.6562,20.75-38.25-6.75-3.6562zm18.531,0.375-21.469,37.875,1.625,0.9375-6.375,10.844,0.375,0.21875-6,9.7188-5.375-3.1562-6.8125,11.531-4.3438-2.5625-21.812,37.25-0.6875-0.375-20.969,38.156,3.25,1.7812-5.4374,8.9375,6.5624,4,22.594-37.219-4.375-2.6562,4.8438-8.8125,0.6562,0.375,6.75-11.562,4.2812,2.5312,6.5626-11.125,4.7187,2.9375,22.938-37-0.4062-0.25,21.375-36.344-2.0313-1.2188,6.25-11.031-6.6875-3.7812zm-1364.1,0.0625-22.656,37.188,6.5625,4,22.656-37.188-6.5625-4zm846.03,3.0938-21.656,37.75,6.6875,3.8125,4.25-7.4375-17.438,31.438,6.7187,3.7188,21.125-38.062-6.625-3.6562,13.594-23.75-6.6563-3.8125zm376.78,0.53125-22.813,37.062,6.5312,4.0312,22.844-37.062-6.5625-4.0312zm225.81,0.875-22.844,37.062,6.5312,4.0312,22.844-37.062-6.5313-4.0312zm-717.94,0.25-22.938,37,6.5313,4.0312,22.906-37-6.5-4.0312zm-826.72,1.7188-6.4063,10.625-5.2812-3.2188-22.594,37.219,6.5938,3.9688,6.4062-10.594,5.3438,3.2188,22.531-37.25-6.5937-3.9688zm682.47,1.2188-6.2188,11.406-5.375-3.2812-22.75,37.094,6.5625,4.0312,8.4688-13.844-1.5312,2.8125,6.75,3.6875,20.844-38.219-6.75-3.6875zm-272.81,0.34385-5.125,8.7188-0.65625-0.375-21.875,37.625,6.6562,3.875,5.0625-8.6875,0.4375,0.25,22.125-37.5-6.625-3.9062zm892,2.0938-22,37.562,6.6562,3.875,21.969-37.562-6.625-3.875zm45.844,0.0625-21.781,37.688,6.6562,3.8438,21.781-37.688-6.6563-3.8438zm-954.78,0.0937-21.469,37.875,6.6875,3.7812,21.469-37.875-6.6875-3.7812zm-43.438,4.0625-20.844,38.219,6.75,3.6875,20.844-38.219-6.75-3.6875zm-178.81,1.9375-17.625,30.281-5.875-3.4062-21.875,37.625,6.6562,3.8438,17.594-30.25,5.875,3.4062,21.875-37.625-6.625-3.875zm156,1.3125-21.125,38.062,6.7188,3.75,21.125-38.062-6.7188-3.75zm-56.5,2.2812-20.688,38.312,6.7812,3.6562,20.656-38.312-6.75-3.6562zm623.16,0.0937-20.781,38.25,6.75,3.6562,20.781-38.25-6.75-3.6562zm77.281,0.0937-22.062,37.531,6.625,3.9062,22.031-37.531-6.5937-3.9062zm-114.25,0.53125-7.0625,11.719-2-1.125-21.188,38,6.6875,3.75,6.5625-11.75,1.125,0.65625,22.438-37.281-6.5625-3.9688zm659.59,1.6875-17.812,31.312-0.9375-0.5-20.719,38.281,6.75,3.6562,17.094-31.562,0.7813,0.4375,21.5-37.812-6.6563-3.8125zm-1306.7,0.28125-22.719,37.125,6.1562,3.75-21.562,36.531,6.625,3.9062,22.125-37.469-6.2188-3.6562,22.125-36.188-6.5313-4zm-189,0.78125-21.406,37.906,6.6875,3.7812,21.406-37.906-6.6875-3.7812zm522.22,3.125-3.3125,5.5312-4.875-2.8125-21.688,37.75,6.6562,3.8125,3.1875-5.5625,4.25,2.5625,22.375-37.344-6.5938-3.9375zm199.84,0.46875-21.719,37.719,6.25,3.625-14.125,23.188,6.5625,4,2.1875-3.5938,1.7812,1,21.125-38.062-6.7188-3.7188-1.9062,3.4062-0.34375-0.1875,13.562-23.562-6.6562-3.8125zm825.97,0.9375-22.719,37.125,6.5625,4.0312,22.719-37.125-6.5625-4.0312zm-252.38,0.21875-22.563,37.219,6.5625,3.9688,22.563-37.188-6.5625-4zm226.88,0.3125-18.531,31.938-3.9688-2.375-22.219,37.438,6.5938,3.9062,18.875-31.75,4.0625,2.3438,21.844-37.625-6.6562-3.875zm-287.56,1.5625-5.75,9.8125-4.1875-2.5625-22.75,37.094,6.5625,4.0312,5.9687-9.7188,4.7188,2.7812,22.062-37.531-6.625-3.9062zm-1200.9,0.28125-20.562,38.344,6.75,3.6562,20.594-38.375-6.7812-3.625zm938.28,0.0937-20.938,38.156,6.7187,3.7188,20.969-38.156-6.75-3.7188zm129.31,0.18765-21.125,38.062,1.375,0.78125-21.375,36.781,6.6562,3.875,21.844-37.656-1.375-0.78125,20.719-37.312-6.7187-3.75zm-875.16,0.1563-22.438,37.281,6.5625,3.9688,22.469-37.312-6.5938-3.9375zm330,1.6562-21.5,37.844,6.6875,3.8125,21.5-37.875-6.6875-3.7812zm-635.16,0.78125-21.438,37.875,6.6875,3.7812,21.438-37.875-6.6875-3.7812zm549.59,0.78125-8.8125,14.25-5.4375-2.9375-19.094,35.531-2.4688-1.5-7.1562,11.688,9.375-16.406-6.6562-3.8125-21.594,37.812,6.0625,3.4375-2.7188,4.4375,6.5625,4,21.156-34.656,2.7188,1.4375,7.8438-14.625,3.875,2.4062,22.906-37.031-6.5625-4.0312zm191,1.375-22.438,37.281,6.5625,3.9688,22.438-37.312-6.5625-3.9375zm406.03,0.6875-20.625,38.312,6.75,3.6562,20.656-38.312-6.7812-3.6562zm283.25,0.28125-20.875,38.219,6.75,3.6875,20.844-38.219-6.7187-3.6875zm-334.09,4.0312-20.625,38.344,6.7813,3.625,20.625-38.312-6.7813-3.6562zm95.594,0.5625-20.656,38.312,6.75,3.625,20.656-38.312-6.75-3.625zm-1024.3,0.21875-12.438,21.344-1.4375-0.84375-22.062,37.531,2.6562,1.5625-17.719,31.312,6.6875,3.7812,21.437-37.906-2.5625-1.4375,8.6562-14.75,1.5,0.875,0.71875-1.2188,3.2188,1.875,22-37.562-6.625-3.875-0.71875,1.25-3.3125-1.9375zm961.56,3.75-21.156,38.031,6.6875,3.7188,21.188-38.031-6.7188-3.7188zm-621.41,2.7812-22.125,37.469,6.625,3.9062,22.125-37.5-6.625-3.875zm957.66,0.53125-21.5,37.812,6.6562,3.8125,21.531-37.844-6.6875-3.7812zm-611.06,1.375-21.125,38.062,0.28125,0.15625-1.2812,2.2812,6.6875,3.7812,21.375-37.938-0.5312-0.28125,1.3125-2.3438-6.7188-3.7188zm25.5,1.5312-20.75,38.25,6.75,3.6562,20.75-38.25-6.75-3.6562zm-279.72,1.5625-22.562,37.219,6.5625,3.9688,22.562-37.219-6.5625-3.9688zm-190.91,0.71875-14.469,23.406-2.9375-1.6875-12.406,21.719-0.21875-0.125-22.5,37.25,6.5625,3.9688,13.031-21.531,0.625,0.34375,13.562-23.75,2.375,1.4688,22.906-37-6.5312-4.0625zm1116.8,0.6875-21.562,37.812,3.1562,1.8125-20.188,37.594,6.75,3.6562,20.625-38.344-3.1875-1.7188,21.094-37-6.6875-3.8125zm-124.56,3.5-21,38.125,6.75,3.6875,20.969-38.125-6.7188-3.6875zm-21.5,1.375-17.969,30.875-6.5-4.0312-22.906,37,2.6563,1.6562-3.9375,6.8125,6.6562,3.8125,21.656-37.594,2.75,1.5938-20.281,37.125,6.75,3.6875,20.875-38.188-4.375-2.375,21.25-36.531-6.625-3.8438zm-643.56,1.4062-21.938,37.594,6.625,3.875,21.969-37.594-6.6562-3.875zm335.28,0.34375-22.156,37.469,0.4375,0.25-20.062,34.656,6.6563,3.8438,21.812-37.656-0.4375-0.25,20.344-34.406-6.5937-3.9062zm-799.75,3.7188-21.938,37.594,6.625,3.875,21.938-37.594-6.625-3.875zm-187.03,1-22.5,37.25,6.5937,3.9688,22.5-37.25-6.5937-3.9688zm604.19,1.8438-11.781,19.938-19.844,33.031,5.8125,3.5-15.844,27.094-22.719,37.125,6.5312,4,22.531-36.781,0.0312,0,0.1875-0.34375,21.75-37.25-5.7188-3.3438,3.4062-5.6562,0.125,0.0625,9.125-15.438,3.7812-6.3125-0.0312-0.0312,9.25-15.688-6.5938-3.9062zm52.875,0.21875-20.969,38.156,6.75,3.6875,20.969-38.156-6.75-3.6875zm-306.47,0.375-21.75,37.688,6.6562,3.8438,21.75-37.688-6.6562-3.8438zm-223.38,1.3125-21.625,37.781,3.9375,2.25-13.844,24.312,6.6875,3.7812,21.531-37.844-3.9062-2.2188,13.875-24.25-6.6562-3.8125zm890.09,0.0312-21.344,37.938,6.5,3.6562-19,32.781,6.6562,3.8438,21.812-37.656-6.5-3.75,18.562-33.062-6.6875-3.75zm-802.34,0.21875-20.812,38.25,6.75,3.6562,20.812-38.25-6.75-3.6562zm922,0.34375-22.562,37.25,6.5937,3.9688,22.531-37.219-6.5625-4zm-647.88,1.5312-22.031,37.531,6.625,3.9062,22.031-37.562-6.625-3.875zm413.31,0.53125-21.531,37.844,6.6875,3.7812,21.531-37.812-6.6875-3.8125zm-972.59,0.0312-22.688,37.156,6.5625,4,22.656-37.156-6.5312-4zm22.312,0.625-22.031,37.531,3.4063,2-10.094,17.812,0.625,0.34375-5.375,9.8125,6.75,3.6875,20.906-38.156-0.25-0.125,5.4687-9.6562-3.125-1.75,10.344-17.625-6.625-3.875zm1291.8,0.0625-21.594,37.781,6.6562,3.8125,21.594-37.781-6.6563-3.8125zm-850.56,0.125-22.594,37.188,6.5625,4,22.625-37.219-6.5938-3.9688zm814.53,1.7188-21.438,37.875,6.6875,3.7812,21.438-37.875-6.6875-3.7812zm-109.97,0.84385-15.594,28.938-5.2188-2.9688-21.656,37.75,6.6562,3.8125,16.375-28.562,5.5625,3,20.656-38.312-6.7813-3.6562zm91.531,0.5625-22.688,37.125,6.5625,4,22.688-37.125-6.5625-4zm-1151.1,0.59375-11,19.031-1.0937-0.65625-22.344,37.344,6.5938,3.9375,11.312-18.938,1.4062,0.8125,21.75-37.688-6.625-3.8438zm919.06,0-20.875,38.188,1.9062,1.0312-16.875,27.594,0.8125,0.5-15,26.875,6.6875,3.75,21.25-38-0.4062-0.21875,15.938-26.031-2.3125-1.4062,15.594-28.625-6.7187-3.6562zm-976.69,0.6875-21.312,37.969,6.7188,3.75,21.281-37.969-6.6875-3.75zm292.66,1.1562-21.688,37.75,6.6562,3.8125,21.688-37.719-6.6562-3.8438zm-180.66,0.65625-21.844,37.625,6.625,3.875,21.875-37.656-6.6562-3.8438zm732.84,0.8125-21.375,37.938,6.6875,3.7812,21.375-37.938-6.6875-3.7812zm288.03,0.78125-21,38.125,6.75,3.7188,20.969-38.156-6.7187-3.6875zm-255.75,0.28125-22.062,37.5,6.625,3.9062,22.062-37.5-6.625-3.9062zm67.969,1.9062-20.906,38.188,6.75,3.6875,20.875-38.188-6.7188-3.6875zm-682.81,0.0937-21.906,37.625,6.6562,3.875,21.875-37.625-6.625-3.875zm496.22,1.5625-6.7188,11.344-4-2.25-21.531,37.812,6.6875,3.8125,6.5-11.438,3.5312,2.0938,22.156-37.469-6.625-3.9062zm-277.22,0.34375-19.688,36.531-2.8125-1.5312-20.969,38.156,6.1875,3.375-4.125,7.3125-2.4375-1.4688-22.562,37.219,6.5625,4,14.094-23.219,2.9688,1.6562,21.312-37.938-6.3125-3.5625,11.062-20.125,2.8125,1.5312,20.656-38.312-6.75-3.625zm1057.4,0.75-16.594,27.188-0.062-0.0312-22.75,37.094,6.5312,4.0312,16.656-27.156,0.062,0.0312,22.719-37.156-6.5626-4zm-1622,0.25-20.688,38.281,6.125,3.3125-7.0312,12.438,6.6875,3.7812,21.406-37.906-6.5312-3.6875,6.7812-12.562-6.75-3.6562zm1143.2,1.4376-20.844,38.219,6.75,3.6562,20.844-38.219-6.75-3.6562zm316.53,1.2812-21.531,37.812,6.6874,3.7812,21.531-37.812-6.6875-3.7812zm-80.625,2.3125-3.375,5.7812-0.1563-0.0937,3.5313-5.6875zm-500.34,3.6875-7.3125,12.25-2.5313-1.5312-22.344,37.375,6.5938,3.9375,7.3125-12.219,2.5938,1.5312,22.281-37.406-6.5937-3.9375zm-276.22,3.4375-21.188,38.031,6.7188,3.75,21.188-38.031-6.7188-3.75zm966.59,1.125-22.656,37.188,6.5625,4,22.656-37.188-6.5626-4zm-1255,1.9062-21.688,37.719,6.6562,3.8438,21.688-37.75-6.6562-3.8125zm445.06,0.96875-21.438,37.875,4.5625,2.5938-18.156,33.406,6.75,3.6562,20.781-38.219-4.5312-2.4688,18.719-33.062-6.6875-3.7812zm552.66,2.1562-22.844,37.031,6.5312,4.0312,22.844-37.031-6.5313-4.0312zm-686.34,0.1875-21.5,37.875,6.6875,3.7812,21.5-37.875-6.6875-3.7812zm-138.37,0.28125-21.938,37.594,6.625,3.875,21.937-37.594-6.625-3.875zm762.59,0.625-21.688,37.75,6.6563,3.8125,21.688-37.75-6.6563-3.8125zm250.94,1.3438-22.375,37.344,6.5938,3.9375,22.344-37.344-6.5626-3.9375zm-505.88,0.59375-21.719,37.75,6.6562,3.8125,21.719-37.719-6.6563-3.8438zm330.78,3.875-19.188,32.969-2.3125-1.2812-21.25,37.969,6.7187,3.75,18.562-33.188,2.1875,1.2812,21.906-37.625-6.625-3.875zm-1136.8,0.3125-12.469,21.188-6.0938-3.7812-22.906,37.031,6.5313,4.0312,12.937-20.906,6.5,3.8438,22.094-37.5-6.5938-3.9062zm385.03,0.53125-22.531,37.219,6.5625,4,22.562-37.25-6.5938-3.9688zm-325.66,0.8125-21.469,37.844,1.7812,1-19,32.781,6.625,3.8438,21.844-37.656-1.8125-1.0625,18.719-32.969-6.6875-3.7812zm45.094,2.625-13.438,22.281-1.0938-0.65625-22.906,37,5.5938,3.4375-16.844,29.094,6.6562,3.8438,21.812-37.688-5.4375-3.125,8.4688-13.688,1.2812,0.75,22.469-37.281-6.5625-3.9688zm504.94,0.59375-21.469,34.969-6.1875-3.3438-20.625,38.312,6.75,3.6562,19.438-36.062,5.8438,3.5938,22.781-37.094-6.5312-4.0312zm169.78,0.5-9.4687,15.594-6.2188-3.8438-22.875,37.031,6.5313,4.0312,9.5937-15.5,6.4063,3.875,22.594-37.219-6.5625-3.9688zm-552.09,0.15625-21.156,38.062,6.7188,3.7188,21.156-38.031-6.7188-3.75zm875.09,0.6875-21.969,37.594,6.625,3.875,21.969-37.594-6.625-3.875zm-149.03,4.3438-20.688,38.312,1.0312,0.5625-6.75,11.719,2.875,1.6562-20.75,36.219,6.6563,3.8125,21.656-37.781-2.875-1.6562,20.844-36.094-1.75-1,6.5312-12.094-6.7812-3.6562zm-680.03,0.0937-20.656,38.312,6.7812,3.625,20.656-38.312-6.7812-3.625zm-100.5,1.0625-3.4688,6.1562-2.8438-1.5625-20.969,38.156,6.75,3.6875,3.375-6.1562,2.4062,1.375,21.438-37.875-6.6875-3.7812zm-264.47,0.8125-22.781,37.094,6.5625,4.0312,22.781-37.094-6.5625-4.0312zm636.09,2.0312-21,38.125,6.75,3.7188,21-38.125-6.75-3.7188zm479.84,1.0938-21.938,37.594,6.625,3.875,21.969-37.594-6.6562-3.875zm200.31,2.5938-16.688,29.094-1.6875-0.96875-21.656,37.781,6.6563,3.8125,9.25-16.125,5.9375,3.5312,22.188-37.469-4.8125-2.8438,7.4687-13-6.6562-3.8125zm-495.38,0.0625-21.469,37.875,5.9063,3.3438-5,8.1875,6.5625,3.9688,22.625-37.156-6.5313-4-2.5312,4.1875,7.125-12.594-6.6875-3.8125zm-201.5,0.375-22.5,37.25,6.5938,3.9688,22.5-37.25-6.5938-3.9688zm-752.84,0.1563-12.969,21.375-5.8437-3.4062-21.938,37.594,6.625,3.875,12.594-21.594,5.5313,3.3438,0.625-1.0312-8.4063,14.688,6.6563,3.8125,21.625-37.781-6.0625-3.4688,8.125-13.406-6.5625-4zm1219.9,0.71875-19.719,35.656-20.781,33.781-0.8438-0.5-21.719,37.719,6.6875,3.8438,13.062-22.688,5.0312,3.0625,22.688-37.156-4.5312-2.75,5.6562-9.2188,0.125,0.0625,21.062-38.094-6.7187-3.7188zm-529.97,1.625-21.938,37.594,6.6562,3.875,21.906-37.625-6.625-3.8438zm-132.94,0.4375-20.75,38.25,6.75,3.6562,20.781-38.25-6.7812-3.6562zm471.12,0.6875-22.312,37.375,6.5938,3.9375,22.312-37.375-6.5938-3.9375zm-918.44,0.34375-22.5,37.281,6.5625,3.9688,22.5-37.281-6.5625-3.9688zm619.28,1.875-22.469,37.281,6.5938,3.9688,22.438-37.281-6.5625-3.9688zm-210.53,0.75-18.094,32.875-5.6562-3.3438-22.062,37.531,6.625,3.875,19.031-32.344,5.9062,3.25,21-38.156-6.75-3.6875zm136.62,2.7188-9.3125,16.531-1-0.5625-17.312,30.156-2.4688-1.4375-21.75,37.719,6.6562,3.8438,17.375-30.156,2.5,1.4375,9.4688-16.5,1.1562,0.65625,21.375-37.938-6.6875-3.75zm870.28,3.5625-20.906,38.188,3.8437,2.0938-18.281,29.531,6.5313,4.0625,22.906-37.031-4.125-2.5312,16.781-30.625-6.75-3.6875zm-1340.2,1.375-15.75,28.625-3.9687-2.1562-20.938,38.156,6.75,3.6875,15.719-28.656,3.9375,2.1562,20.969-38.125-6.7188-3.6875zm232.88,0.40625-22.344,37.344,6.5625,3.9375,22.375-37.344-6.5938-3.9375zm983.06,3.9062-18.75,32.094-4.0938-2.2188-20.656,38.312,6.7812,3.6562,17.562-32.625,3.8125,2.25,21.969-37.594-6.625-3.875zm-474.53,0.625-19,33.594-4.1562-2.2812-21.156,38.031,2.125,1.1875-0.34375,0.59375,6.5938,3.9375,20.219-33.906,0.9688,0.53125,21.438-37.906-6.6875-3.7812zm327.34,1.3438-21.281,38,6.7188,3.75,21.25-37.969-6.6875-3.7812zm-1215.6,1.4375-22.719,37.125,6.5625,4,22.719-37.125-6.5625-4zm1526.4,2.125-8.4375,15.438-3.9375-2.1562-20.875,38.188,4.5938,2.5312-3,5.3438,6.6875,3.7812,21.375-37.906-1.0937-0.625,11.437-20.906-6.75-3.6875zm-496.31,0.3125-22.812,37.062,6.5625,4.0312,22.812-37.062-6.5625-4.0312zm-215.97,0.1875-21.438,37.875,6.6875,3.7812,21.438-37.875-6.6875-3.7812zm-631.62,1.5-21.906,37.625,2,1.1562-18.656,30.812,6.5625,4,22.563-37.219-2.125-1.2812,18.219-31.219-6.6562-3.875zm610.94,0.25-22.031,37.531,6.625,3.9062,22.031-37.531-6.625-3.9062zm777.13,2.8438-21.656,37.75,6.6875,3.8438,21.625-37.781-6.6563-3.8125zm-717.38,0.5-20.25,33.438-5.5-3.25-16.625,28.281-4.0312-2.4688-22.719,37.125,6.5312,4.0312,17.188-28.062,4.2188,2.5,19.812-33.656,5.4062,3.2812,22.531-37.25-6.5625-3.9688zm-426.59,0.15625-22.562,37.219,6.5625,4,22.562-37.25-6.5625-3.9688zm624.66,0.75-21.594,37.781,6.6875,3.8125,21.562-37.781-6.6562-3.8125zm-651.25,1.8125-14.219,25.312-0.71875-0.4375-16.938,28.562-6.125-3.75-22.75,37.125,6.5625,4,17.375-28.312,6.2812,3.7188,14.875-25.094,1.0625,0.59375,21.281-37.969-6.6875-3.75zm868.28,0.34375-21.438,37.875,4.7188,2.6875-11.562,19.594,6.5937,3.9062,2-3.4062,2.1875,1.3125,22.469-37.312-6.5625-3.9375-2.0625,3.4375-0.9063-0.53125,11.25-19.844-6.6875-3.7812zm-325.72,0.25-22.031,37.531,6.625,3.9062,22.031-37.562-6.625-3.875zm500.69,2.9375-22.094,37.5,6.5938,3.9062,22.125-37.5-6.625-3.9062zm-371.03,0.59375-22.469,37.312,1.2812,0.75-19.062,34.938,6.75,3.6562,20.844-38.219-1.125-0.625,20.344-33.844-6.5625-3.9688zm-1047.1,1.5625-22.625,37.188,5.7812,3.5-9.0937,16.312-6.2813-3.4688-21.125,38.062,6.7188,3.7188,10.719-19.312,6.2188,3.5,21.219-38.031-5.8125-3.2188,20.844-34.281-6.5625-3.9688zm164.34,1.6875-21.812,37.656,6.625,3.8438,21.812-37.656-6.625-3.8438zm1065.4,0.6875-21.25,37.969,6.7187,3.75,21.25-37.969-6.7187-3.75zm-682.28,0.46875-6.1562,11.25-5.9688-3.4688-21.875,37.625,1.6562,0.96875-15.75,26.906,6.625,3.875,22-37.562-1.6875-0.96875,0.96875-1.6875-0.6875,1.2812,6.75,3.6562,20.844-38.188-6.7188-3.6875zm-232.72,0.25-22.094,37.5,6.625,3.9062,22.062-37.531-6.5938-3.875zm848.38,0.59375-21.688,37.75,6.6562,3.8438,21.688-37.75-6.6562-3.8438zm-486.16,0.5-22.875,37.031,4.9062,3.0312-6.5,11.5,6.6875,3.7812,21.438-37.875-4.0312-2.2812,6.9062-11.156-6.5312-4.0312zm-617.72,0.25-21.438,37.875,4.7188,2.6562-12.688,20.625,6.5312,4.0312,22.781-37.094-5.1875-3.1875,11.969-21.125-6.6875-3.7812zm872.63,0.90625-21.812,37.688,6.6562,3.8438,21.812-37.656-6.6562-3.875zm-650.91,0.1875-20.875,34.719-0.71875-0.4375-18.062,29.625-3.1562-1.7188-20.625,38.344,6.75,3.625,16.344-30.344,2.6562,1.625,21.094-34.594,0.75,0.4375,22.406-37.344-6.5625-3.9375zm1017.6,1-22.469,37.281,0.5937,0.34375-17.344,29,6.5937,3.9688,22.344-37.344-0.5938-0.34375,17.469-28.969-6.5938-3.9375zm-999.44,1.6875-22.75,37.125,6.5625,4,22.719-37.125-6.5312-4zm150.22,2.8125-20.875,38.156,6.7188,3.6875,20.906-38.156-6.75-3.6875zm-321.63,0.8125-21.625,37.781,6.6875,3.8125,21.594-37.781-6.6563-3.8125zm-52.438,0.59375-21.156,38.031,6.6875,3.75,21.188-38.031-6.7188-3.75zm531.94,0.25-22.531,37.25,6.5938,3.9688,22.5-37.25-6.5625-3.9688zm392.59,0.84375-22.438,37.281,6.5625,3.9688,22.469-37.312-6.5938-3.9375zm383.19,1.2812-12.344,21.188-1.5-0.875-9.4688,16.406-2.4062-1.3125-20.875,38.188,1.2187,0.65625-15.219,27.812,6.75,3.6875,20.906-38.188-1.2187-0.65625,3.3437-6.125,1.875,1.0625,12.25-21.219,1.4375,0.84375,21.906-37.594-6.6563-3.875zm-505.34,0.21875-22.594,37.188,6.5625,4,22.594-37.219-6.5625-3.9688zm-871.19,1.3438-21.656,37.781,6.6875,3.8125,21.625-37.75-6.6563-3.8438zm1052.3,1-21.219,38,2.2812,1.2812-19.188,33.344,6.6563,3.8438,21.719-37.719-2.3437-1.3438,18.781-33.656-6.6875-3.75zm-625.59,1.1562-22.719,37.125,6.5312,4,22.75-37.125-6.5625-4zm906.28,1.7188-21.5,37.875,6.6563,3.7812,21.5-37.844-6.6563-3.8125zm-1406.5,1.5312-20.812,38.219,6.75,3.6562,20.812-38.219-6.75-3.6562zm791.41,1.875-21.156,38.031,6.6875,3.7188,21.188-38.031-6.7188-3.7188zm-845.53,1.75-21.906,37.625,6.625,3.875,21.906-37.625-6.625-3.875zm302.13,5.4062-21.75,37.688,6.6562,3.8438,21.75-37.688-6.6562-3.8438zm990.41,1.8125-22.094,37.5,6.625,3.9062,22.094-37.5-6.625-3.9062zm344.38,0.0312-20.938,38.156,6.7188,3.6875,20.969-38.156-6.75-3.6875zm-1485.3,1.625-20.969,38.125,4.0625,2.25-14.562,26.969,6.75,3.625,20.688-38.281-4-2.1562,14.781-26.812-6.75-3.7188zm946.16,0.625-22.906,37.031,3.75,2.3125-4.9375-2.8124-21.469,37.875,6.6875,3.7812,21.438-37.781,1.0625,0.65625,22.906-37.031-6.5313-4.0312zm-38.906,0.125-21.062,38.094,6.7187,3.7188,21.062-38.094-6.7187-3.7188zm-697.13,1.0938-21.156,38.031,6.6875,3.75,21.188-38.031-6.7188-3.75zm65.531,0.28125-21.344,37.938,1.7188,0.96875-18.906,33.344,6.6875,3.8125,21.469-37.875-1.75-1,18.812-33.438-6.6875-3.75zm-91.938,2.2812-21.062,38.094,6.7188,3.7188,21.062-38.094-6.7188-3.7187zm437.09,2.125-20.812,38.25,6.75,3.6562,20.812-38.219-6.75-3.6875zm-33.312,0.96875-21.125,38.062,6.7188,3.7188,21.125-38.062-6.7188-3.7188zm-687.06,2.6562-20.812,38.219,5.0625,2.75-14.781,25.75,6.6562,3.8438,21.656-37.781-5.25-3,14.219-26.094-6.75-3.6875zm460.72,0.625-21.562,37.812,6.6875,3.8125,21.562-37.812-6.6875-3.8125zm701.53,0.78125-21.656,37.75,3.3125,1.875-10.031,17.344,6.625,3.8438,21.781-37.688-3.3437-1.9375,9.9687-17.375-6.6562-3.8125zm-192.31,0.0625-22.031,37.562,3.9688,2.3125-5.5,10.188,6.7812,3.6562,3.75-6.9688,4.9688,2.6875,20.656-38.344-6.7812-3.625-3.75,6.9375-1.2188-0.65625,5.7813-9.875-6.625-3.875zm292.5,0.84375-20.688,38.281,6.75,3.6562,20.688-38.281-6.75-3.6562zm-717.41,0.3438-2.9688,5.0938-18.594,30.5-4.8438-2.8125-22,37.562,6.625,3.875,18.656-31.844,4.6875,2.8438,2.5-4.125,0.625,0.375,18.656-31.969,0.875-1.4375-0.0312-0.0312,2.4375-4.1562-6.625-3.875zm945.66,0.125-20.844,38.219,3.125,1.6875-10.594,17.125,3.6875,2.2812-9.7187,16.812,6.6562,3.8438,21.75-37.719-3.0938-1.7812,10.156-16.406-4.0937-2.5625,9.7187-17.844-6.75-3.6562zm-684.94,0.78125-21.906,37.625,6.625,3.875,21.906-37.625-6.625-3.875zm19.188,0.53125-22,37.562,6.625,3.875,22-37.531-6.625-3.9062zm-119.28,1.9688-21.375,37.938,6.6875,3.75,21.406-37.906-6.7188-3.7812zm855.28,0-22.594,37.188,6.5624,4,22.594-37.188-6.5625-4zm-1303.9,1.8438-12.438,22.375-0.8125-0.46875-10.781,18.844-6.625-3.625-21.031,38.094,6.75,3.7188,10.5-19.031,6.2188,3.5625,12.781-22.25,0.96875,0.53125,21.188-38.031-6.7188-3.7188zm1101.8,4-22.531,37.25,6.5938,3.9688,22.5-37.25-6.5625-3.9688zm-264.41,0.25-22.906,37.031,6.5625,4.0312,22.875-37-6.5313-4.0625zm149,0.125-21.562,37.812,6.6875,3.7812,21.531-37.812-6.6563-3.7812zm-48.531,0.3125-22.219,37.438,6.625,3.9062,22.188-37.406-6.5937-3.9375zm-130.88,2.1875-21.75,37.688,6.6562,3.8438,21.75-37.719-6.6562-3.8125zm-424.25,1.375-20.719,38.281,6.7812,3.6562,20.719-38.25-6.7812-3.6875zm-167.53,0.21875-21.375,37.906,6.7188,3.7812,21.344-37.938-6.6875-3.75zm130.91,1.7188-22.406,37.312,6.5625,3.9688,22.438-37.312-6.5938-3.9688zm691.81,0.21875-20.75,38.25,6.75,3.6562,20.75-38.25-6.75-3.6562zm-957.44,1.3125-21.031,38.125,6.7188,3.6875,21.031-38.125-6.7188-3.6875zm520.75,1.8438-15.438,27.062-6.3438-3.4062-20.656,38.344,6.7812,3.625,14.781-27.406,5.9688,3.4062,21.562-37.812-6.6562-3.8125zm28,0.71875-21.406,37.875,6.6875,3.7812,21.406-37.875-6.6875-3.7812zm-875,3.875-22.344,37.344,6.5625,3.9375,22.375-37.344-6.5938-3.9375zm-48.281,1.5938-20.594,38.344,6.7813,3.6562,20.562-38.344-6.75-3.6562zm1256.1,1.1562-20.781,38.25,6.75,3.6562,20.781-38.219-6.75-3.6875zm-721.69,4.2188-22.188,37.438,6.625,3.9375,22.156-37.469-6.5938-3.9062zm541.13,0.28125-20.969,38.125,6.75,3.7188,20.969-38.156-6.75-3.6875zm-973.81,1.125-22.562,37.219,6.5625,4,22.562-37.219-6.5625-4zm1270.8,0.40625-22.375,37.312,6.5937,3.9375,22.375-37.312-6.5937-3.9375zm-765.63,0.0625-21,38.094,6.7188,3.7188,21.031-38.125-6.75-3.6875zm-424.53,1.0312-22.844,37.062,6.5313,4.0312,22.844-37.062-6.5312-4.0312zm-24.594,0.53125-21.062,38.125,6.7188,3.6875,21.062-38.094-6.7188-3.7188zm816.63,2.2188-20.875,38.219,6.75,3.6875,20.844-38.219-6.7187-3.6875zm-208.72,2-21.969,37.562,6.625,3.875,21.969-37.562-6.625-3.875zm-795.59,0.1875-22.594,37.219,6.5625,4,22.594-37.219-6.5625-4zm1435.8,1-21.719,37.719,6.6563,3.8125,21.719-37.719-6.6562-3.8125zm139.34,0-22.781,37.094,6.5313,4.0312,22.781-37.094-6.5312-4.0312zm-1126.3,0.15625-21.906,37.594,6.625,3.875,21.938-37.594-6.6562-3.875zm282.28,0.25-22.062,37.5,6.5938,3.9062,22.094-37.5-6.625-3.9062zm605.84,0.0937-21.938,37.594,6.6562,3.875,21.906-37.625-6.625-3.8438zm-864.94,0.59375-22.594,37.188,6.5625,4,22.594-37.188-6.5625-4zm362.34,0.8125-22.281,37.375,6.5938,3.9375,22.312-37.406-6.625-3.9062zm11.344,0.0312-21.406,37.906,6.6875,3.7812,21.406-37.906-6.6875-3.7812zm-349.97,0.625-21.562,37.812,6.6875,3.8125,21.531-37.812-6.6562-3.8125zm-251.37,0.21875-22.156,37.438,6.5938,3.9062,22.188-37.438-6.625-3.9062z" fill-opacity="0.50196078" display="none" fill="#242bce">
   <animateTransform id="animateTransform20623" from="0 0" repeatCount="indefinite" attributeName="transform" to="-524.79795 779.24544" attributeType="XML" dur="10s" type="translate"/>
  </path>
  <use id="rain2" xlink:href="#rain1" transform="translate(524.79795,-779.24544)" height="744.09448" width="1052.3622" y="0" x="0"/>
  <path id="ground" d="m601.44,607.56c-64.956,0.00001-84.414,10.556-171.72,23.875-87.305,13.319-95.682-13.812-151.62-13.812-53.256,0-100.78,18.29-145.31,12.594-45.633-5.84-50.95-32.59-89.665-19.78-14.194,4.69-22.964-8.99-43.125,4.25v129.41h1052.4v-68.281c-58.28-31.07-150.41-33.14-253.21-34.98-50.03-20.51-120.13-33.28-197.75-33.28z" fill="url(#linearGradient4496)"/>
  <g id="cloud-heavy" display="none" transform="translate(-21.685866,-114.21223)">
   <animateTransform id="animateTransform6222" from="0 -114.21223" repeatCount="indefinite" attributeName="transform" to="1052.36 -114.21223" attributeType="XML" dur="7s" type="translate"/>
   <path id="path4391" fill-opacity="0.75294118" fill="#FFF" d="m383.66,105.63c-45.935,0-83.882,34.145-89.875,78.438-7.4227-1.9633-15.21-3.0312-23.25-3.0312-50.099,0-90.719,40.62-90.719,90.719s40.62,90.719,90.719,90.719h236.47c50.099,0,90.719-40.62,90.719-90.719s-40.62-90.719-90.719-90.719c-11.662,0-22.821,2.241-33.062,6.25-4.5435-45.848-43.238-81.656-90.281-81.656z"/>
   <path id="path4393" d="m635.22,23.224c-45.935,0-83.882,34.145-89.875,78.437-7.4227-1.9633-15.21-3.0312-23.25-3.0312-50.099,0-90.719,40.62-90.719,90.719s40.62,90.719,90.719,90.719h236.47c50.099,0,90.719-40.62,90.719-90.719s-40.62-90.719-90.719-90.719c-11.662,0-22.821,2.2409-33.062,6.25-4.5435-45.848-43.238-81.656-90.281-81.656z" fill-opacity="0.75294118" fill="#FFF"/>
   <path id="path4395" fill-opacity="0.75294118" fill="#FFF" d="m846.3,128.76c-45.935,0-83.882,34.145-89.875,78.438-7.4227-1.9633-15.21-3.0312-23.25-3.0312-50.099,0-90.719,40.62-90.719,90.719s40.62,90.719,90.719,90.719h236.47c50.099,0,90.719-40.62,90.719-90.719s-40.62-90.719-90.719-90.719c-11.662,0-22.821,2.241-33.062,6.25-4.5435-45.848-43.238-81.656-90.281-81.656z"/>
   <path id="path4397" fill-opacity="0.75294118" fill="#FFF" d="m597.63,176.47c-45.935,0-83.882,34.145-89.875,78.438-7.4227-1.9633-15.21-3.0312-23.25-3.0312-50.099,0-90.719,40.62-90.719,90.719s40.62,90.719,90.719,90.719h236.47c50.099,0,90.719-40.62,90.719-90.719s-40.62-90.719-90.719-90.719c-11.662,0-22.821,2.2409-33.062,6.25-4.5435-45.848-43.238-81.656-90.281-81.656z"/>
   <path id="path4399" d="m273.79,20.332c-45.935,0-83.882,34.145-89.875,78.438-7.4227-1.9633-15.21-3.0312-23.25-3.0312-50.099,0-90.719,40.62-90.719,90.719s40.62,90.719,90.719,90.719h236.47c50.099,0,90.719-40.62,90.719-90.719s-40.62-90.719-90.719-90.719c-11.662,0-22.821,2.2409-33.062,6.25-4.5435-45.848-43.238-81.656-90.281-81.656z" fill-opacity="0.75294118" fill="#FFF"/>
   <path id="path4401" fill-opacity="0.75294118" fill="#FFF" d="m233.31,160.57c-45.935,0-83.882,34.145-89.875,78.438-7.4227-1.9633-15.21-3.0312-23.25-3.0312-50.099,0-90.719,40.62-90.719,90.719s40.62,90.719,90.719,90.719h236.47c50.099,0,90.719-40.62,90.719-90.719s-40.62-90.719-90.719-90.719c-11.662,0-22.821,2.2409-33.062,6.25-4.5435-45.848-43.238-81.656-90.281-81.656z"/>
   <path id="path4403" d="m580.28,188.04c-45.935,0-83.882,34.145-89.875,78.438-7.4227-1.9633-15.21-3.0312-23.25-3.0312-50.099,0-90.719,40.62-90.719,90.719s40.62,90.719,90.719,90.719h236.47c50.099,0,90.719-40.62,90.719-90.719s-40.62-90.719-90.719-90.719c-11.662,0-22.821,2.2409-33.062,6.25-4.5435-45.848-43.238-81.656-90.281-81.656z" fill-opacity="0.75294118" fill="#FFF"/>
   <path id="path4405" fill-opacity="0.75294118" fill="#FFF" d="m837.62,23.224c-45.935,0-83.882,34.145-89.875,78.437-7.4227-1.9633-15.21-3.0312-23.25-3.0312-50.099,0-90.719,40.62-90.719,90.719s40.62,90.719,90.719,90.719h236.47c50.099,0,90.719-40.62,90.719-90.719s-40.62-90.719-90.719-90.719c-11.662,0-22.821,2.2409-33.062,6.25-4.5435-45.848-43.238-81.656-90.281-81.656z"/>
   <path id="path4407" d="m843.4,193.82c-45.935,0-83.882,34.145-89.875,78.437-7.4227-1.9633-15.21-3.0312-23.25-3.0312-50.099,0-90.719,40.62-90.719,90.719s40.62,90.719,90.719,90.719h236.47c50.099,0,90.719-40.62,90.719-90.719s-40.62-90.719-90.719-90.719c-11.662,0-22.821,2.2409-33.062,6.25-4.5435-45.848-43.238-81.656-90.281-81.656z" fill-opacity="0.75294118" fill="#FFF"/>
   <path id="path4409" fill-opacity="0.75294118" fill="#FFF" d="m843.4,193.82c-45.935,0-83.882,34.145-89.875,78.437-7.4227-1.9633-15.21-3.0312-23.25-3.0312-50.099,0-90.719,40.62-90.719,90.719s40.62,90.719,90.719,90.719h236.47c50.099,0,90.719-40.62,90.719-90.719s-40.62-90.719-90.719-90.719c-11.662,0-22.821,2.2409-33.062,6.25-4.5435-45.848-43.238-81.656-90.281-81.656z"/>
   <path id="path4411" fill-opacity="0.75294118" fill="#FFF" d="m320.05,188.04c-45.935,0-83.882,34.145-89.875,78.438-7.4227-1.9633-15.21-3.0312-23.25-3.0312-50.099,0-90.719,40.62-90.719,90.719s40.62,90.719,90.719,90.719h236.47c50.099,0,90.719-40.62,90.719-90.719s-40.62-90.719-90.719-90.719c-11.662,0-22.821,2.2409-33.062,6.25-4.5435-45.848-43.238-81.656-90.281-81.656z"/>
   <path id="path4413" d="m150.9,214.06c-45.935,0-83.882,34.145-89.875,78.438-7.4227-1.9633-15.21-3.0312-23.25-3.0312-50.099,0-90.719,40.62-90.719,90.719s40.62,90.719,90.719,90.719h236.47c50.099,0,90.719-40.62,90.719-90.719s-40.62-90.719-90.719-90.719c-11.662,0-22.821,2.2409-33.062,6.25-4.5435-45.848-43.238-81.656-90.281-81.656z" fill-opacity="0.75294118" fill="#FFF"/>
   <path id="path4415" fill-opacity="0.75294118" fill="#FFF" d="m85.845,156.23c-45.935,0-83.882,34.145-89.875,78.438-7.4227-1.9633-15.21-3.0312-23.25-3.0312-50.099,0-90.719,40.62-90.719,90.719s40.62,90.719,90.719,90.719h236.47c50.099,0,90.719-40.62,90.719-90.719s-40.62-90.719-90.719-90.719c-11.662,0-22.821,2.2409-33.062,6.25-4.5435-45.848-43.238-81.656-90.281-81.656z"/>
   <path id="path4417" d="m599.08,69.487c-45.935,0-83.882,34.145-89.875,78.438-7.4227-1.9633-15.21-3.0312-23.25-3.0312-50.099,0-90.719,40.62-90.719,90.719s40.62,90.719,90.719,90.719h236.47c50.099,0,90.719-40.62,90.719-90.719s-40.62-90.719-90.719-90.719c-11.662,0-22.821,2.2409-33.062,6.25-4.5435-45.848-43.238-81.656-90.281-81.656z" fill-opacity="0.75294118" fill="#FFF"/>
   <path id="path4449" d="m1006.8,137.44c-45.935,0-83.882,34.145-89.875,78.437-7.4227-1.9633-15.21-3.0312-23.25-3.0312-50.099,0-90.719,40.62-90.719,90.719s40.62,90.719,90.719,90.719h236.47c50.099,0,90.719-40.62,90.719-90.719s-40.62-90.719-90.719-90.719c-11.662,0-22.821,2.2409-33.062,6.25-4.5435-45.848-43.238-81.656-90.281-81.656z" fill-opacity="0.75294118" fill="#FFF"/>
   <path id="path4451" fill-opacity="0.75294118" fill="#FFF" d="m993.76,192.37c-45.935,0-83.882,34.145-89.875,78.437-7.4227-1.9633-15.21-3.0312-23.25-3.0312-50.099,0-90.719,40.62-90.719,90.719s40.62,90.719,90.719,90.719h236.47c50.099,0,90.719-40.62,90.719-90.719s-40.62-90.719-90.719-90.719c-11.662,0-22.821,2.2409-33.062,6.25-4.5435-45.848-43.238-81.656-90.281-81.656z"/>
   <path id="path4453" d="m468.96,215.5c-45.935,0-83.882,34.145-89.875,78.437-7.4227-1.9633-15.21-3.0312-23.25-3.0312-50.099,0-90.719,40.62-90.719,90.719s40.62,90.719,90.719,90.719h236.47c50.099,0,90.719-40.62,90.719-90.719s-40.62-90.719-90.719-90.719c-11.662,0-22.821,2.2409-33.062,6.25-4.5435-45.848-43.238-81.656-90.281-81.656z" fill-opacity="0.75294118" fill="#FFF"/>
  </g>
  <g id="cloud-medium" display="none" transform="translate(18.794417,-70.840494)">
   <animateTransform id="animateTransform6225" from="0 -70.840494" repeatCount="indefinite" attributeName="transform" to="1052.36 -70.840494" attributeType="XML" dur="7s" type="translate"/>
   <path id="path4474" fill-opacity="0.75294118" fill="#FFF" d="m453,17.531c-45.935,0-83.882,34.145-89.875,78.438-7.4227-1.9633-15.21-3.0312-23.25-3.0312-5.2627,0-10.42,0.45214-15.438,1.3125-14.19-9.1948-31.085-14.562-49.25-14.562-45.935,0-83.882,34.145-89.875,78.438-7.4227-1.9633-15.21-3.0312-23.25-3.0312-14.948,0-29.067,3.595-41.5,10-16.48-17.01-39.554-27.6-65.112-27.6-45.935,0-83.882,34.145-89.875,78.438-7.4227-1.9633-15.21-3.0312-23.25-3.0312-50.099,0-90.719,40.62-90.719,90.719s40.62,90.719,90.719,90.719h236.47c38.499,0,71.39-23.97,84.562-57.812h135.19c31.215,0,58.74-15.775,75.062-39.781,16.523,22.368,43.091,36.875,73.031,36.875h236.47c25.5,0,48.518-10.528,65-27.469h154.75c50.099,0,90.719-40.62,90.719-90.719s-40.62-90.719-90.719-90.719c-11.662,0-22.821,2.241-33.063,6.25-4.5-45.859-43.2-81.668-90.24-81.668-45.935,0-83.882,34.145-89.875,78.438-7.4227-1.9633-15.21-3.0312-23.25-3.0312-8.6211,0-16.974,1.1905-24.875,3.4375-14.659-30.392-45.75-51.375-81.75-51.375-21.556,0-41.376,7.5035-56.938,20.062-8.3746-2.5513-17.26-3.9062-26.469-3.9062-11.662,0-22.821,2.241-33.062,6.25-4.54-45.851-43.24-81.66-90.28-81.66z"/>
   <path id="path4485" d="m648.18,134.62c-45.935,0-83.882,34.145-89.875,78.438-7.4227-1.9633-15.21-3.0312-23.25-3.0312-50.099,0-90.719,40.62-90.719,90.719s40.62,90.719,90.719,90.719h236.47c50.099,0,90.719-40.62,90.719-90.719s-40.62-90.719-90.719-90.719c-11.662,0-22.821,2.241-33.062,6.25-4.5435-45.848-43.238-81.656-90.281-81.656z" fill-opacity="0.75294118" fill="#FFF"/>
   <path id="path4488" fill-opacity="0.75294118" fill="#FFF" d="m380.72,57.997c-45.935,0-83.882,34.145-89.875,78.438-7.4227-1.9633-15.21-3.0312-23.25-3.0312-50.099,0-90.719,40.62-90.719,90.719s40.62,90.719,90.719,90.719h236.47c50.099,0,90.719-40.62,90.719-90.719s-40.62-90.719-90.719-90.719c-11.662,0-22.821,2.241-33.062,6.25-4.5435-45.848-43.238-81.656-90.281-81.656z"/>
   <path id="path4490" d="m889.61,8.8425c-45.935,0-83.882,34.145-89.875,78.438-7.4227-1.9633-15.21-3.0312-23.25-3.0312-50.099,0-90.719,40.62-90.719,90.719s40.62,90.719,90.719,90.719h236.47c50.099,0,90.719-40.62,90.719-90.719s-40.62-90.719-90.719-90.719c-11.662,0-22.821,2.241-33.062,6.25-4.59-45.85-43.29-81.658-90.33-81.658z" fill-opacity="0.75294118" fill="#FFF"/>
   <path id="path4492" fill-opacity="0.75294118" fill="#FFF" d="m354.69,191c-45.935,0-83.882,34.145-89.875,78.438-7.4227-1.9633-15.21-3.0312-23.25-3.0312-50.099,0-90.719,40.62-90.719,90.719s40.62,90.719,90.719,90.719h236.47c50.099,0,90.719-40.62,90.719-90.719s-40.62-90.719-90.719-90.719c-11.662,0-22.821,2.241-33.062,6.25-4.5435-45.848-43.238-81.656-90.281-81.656z"/>
   <path id="path4494" d="m919.97,151.97c-45.935,0-83.882,34.145-89.875,78.438-7.4227-1.9633-15.21-3.0312-23.25-3.0312-50.099,0-90.719,40.62-90.719,90.719s40.62,90.719,90.719,90.719h236.47c50.099,0,90.719-40.62,90.719-90.719s-40.62-90.719-90.719-90.719c-11.662,0-22.821,2.241-33.062,6.25-4.5434-45.848-43.238-81.656-90.281-81.656z" fill-opacity="0.75294118" fill="#FFF"/>
  </g>
  <path id="cloud-light" d="m821.66,29.083c-45.935,0-83.882,34.145-89.875,78.438-7.4227-1.9633-15.21-3.0312-23.25-3.0312-50.099,0-90.719,40.62-90.719,90.719s40.62,90.719,90.719,90.719h236.47c50.099,0,90.719-40.62,90.719-90.719s-40.62-90.719-90.719-90.719c-11.662,0-22.821,2.241-33.062,6.25-4.52-45.849-43.21-81.657-90.26-81.657z" fill-opacity="0.75294118" display="none" fill="#FFF">
   <animateTransform id="animateTransform6216" from="0 0" repeatCount="indefinite" attributeName="transform" to="1052.36 0" attributeType="XML" dur="7s" type="translate"/>
  </path>
  <use id="use6228" xlink:href="#cloud-heavy" transform="translate(-1052.36,0)" height="744.09448" width="1052.3622" y="0" x="0"/>
  <use id="use6220" xlink:href="#cloud-medium" transform="translate(-1052.36,0)" height="744.09448" width="1052.3622" y="0" x="0"/>
  <use id="use6218" xlink:href="#cloud-light" transform="translate(-1052.36,0)" height="744.09448" width="1052.3622" y="0" x="0"/>
 </g>
</svg>
